<?xml version="1.0" encoding="utf-8"?>
<!-- Generator: Adobe Illustrator 21.0.0, SVG Export Plug-In . SVG Version: 6.00 Build 0)  -->
<svg version="1.1" id="Capa_1" xmlns="http://www.w3.org/2000/svg" xmlns:xlink="http://www.w3.org/1999/xlink" x="0px" y="0px"
	 viewBox="0 0 512 512" style="enable-background:new 0 0 512 512;" xml:space="preserve">
<g>
	<path d="M248.9,103.2c-17.7-61.9-83-98.1-145-80.3C42,40.7,5.9,105.8,23.6,167.8s83,98,144.9,80.3S266.6,165.2,248.9,103.2z
		 M58.5,192.6l55.4-15.9l15.8,55.1C101.5,229.8,75.2,215.4,58.5,192.6z M193.8,213l-15.7-54.8l-64.2,18.4l-18.4-64.2L40,128.2
		c2.1-28.2,16.7-54.4,39.6-71l15.8,55.1l64.3-18.4L144,39.2c27.8,2.3,53.5,16.6,70.1,39.1l-54.5,15.8l18.5,64.2l54.5-15.6
		C230.4,170.5,216.2,196.3,193.8,213z"/>
	<path d="M492.9,286.8l-124.6-55L242,291v138.5l129.7,64.1l121.2-61.8V286.8z M362.5,336.9l-84.5-40l89.9-43.5l90.9,39.2
		L362.5,336.9z M376.5,466.3l-0.3-110.5l96.5-43.8v106.9L376.5,466.3z"/>
	<path d="M129,366.8c-58.9-16.9-76.8-39.8-93.7-96.7c0,0-28,111.5,80.6,142.6l-9.7,34l104.6-33.4l-71-83.7L129,366.8z"/>
</g>
</svg>
