<?xml version="1.0" encoding="utf-8"?>
<!-- Generator: Adobe Illustrator 21.0.0, SVG Export Plug-In . SVG Version: 6.00 Build 0)  -->
<svg version="1.1" id="Capa_1" xmlns="http://www.w3.org/2000/svg" xmlns:xlink="http://www.w3.org/1999/xlink" x="0px" y="0px"
	 viewBox="0 0 512 512" style="enable-background:new 0 0 512 512;" xml:space="preserve">
<path d="M427,259.5c0,0-120.3,125.2-156.2,157c-37.4,33.3-102.9,23.3-141.5-11.3C89.9,370,92,307.3,125,275.5l181.1-183
	c22.1-24.4,57.3-22.3,82.3,2.9s28,61.6,5.4,85.1L252.6,322.7c-9.4,9.5-25.6,8.3-33.7-2.5c-9.4-12.8-3.6-28.8,13.5-44l106.2-106.9
	l-33.2-32.4l-126,126.8c-19.2,19.3-22.6,63.6,2.3,88.7c24.8,25.1,70.3,32.8,92,10.5l146.1-147C473.9,158,457,101,417.1,60.8
	s-107.8-36.9-145.8,1.4L90.9,243.8c-52.3,52.5-53.4,138.5,1.3,193.8c54.7,55.3,166.1,51.6,205,17.1
	c40.8-36.1,163.3-162.9,163.3-162.9L427,259.5z"/>
</svg>
