<?xml version="1.0" encoding="utf-8"?>
<!-- Generator: Adobe Illustrator 21.0.0, SVG Export Plug-In . SVG Version: 6.00 Build 0)  -->
<svg version="1.1" id="Capa_1" xmlns="http://www.w3.org/2000/svg" xmlns:xlink="http://www.w3.org/1999/xlink" x="0px" y="0px"
	 viewBox="0 0 512 512" style="enable-background:new 0 0 512 512;" xml:space="preserve">
<path d="M111.7,377.2h289.6c-40.9-54.1-53.6-107.2-53.6-192c0-8.1-1.9-23.5-5.7-32.1s-9.3-16.8-16.5-24.7
	c-7.2-7.8-16.8-14.3-29.1-19.2c-12.2-5.1-25.8-7.5-40.5-7.5c-14.8,0-28.3,2.5-40.5,7.5c-12.2,5.1-21.9,11.4-29.1,19.2
	c-7.2,7.8-12.7,16-16.5,24.7c-3.9,8.6-5.7,27-5.7,35.1C164.3,273,152.1,323.1,111.7,377.2z M472,389.2c0,9-3.3,16.8-9.9,23.4
	s-14.4,9.9-23.4,9.9H322.5c0,18.4-6.5,34.1-19.5,47.1s-28.7,19.5-47,19.5s-34.1-6.5-47-19.5c-13-13-19.5-28.7-19.5-47.1H73.3
	c-9,0-16.8-3.3-23.4-9.9S40,398.2,40,389.2c8.7-7.3,16.6-14.9,23.7-22.9s14.5-18.3,22.1-31.1c7.6-12.7,14.1-26.5,19.4-41.2
	s9.6-32.6,13-53.6s5.1-43.5,5.1-67.6c0-26.3,10.1-50.8,30.4-73.5s46.8-36.4,79.7-41.2c-1.4-3.3-2.1-6.7-2.1-10.1
	c0-6.9,2.4-12.8,7.3-17.7c4.9-4.9,10.7-7.3,17.7-7.3c6.9,0,12.8,2.4,17.7,7.3s7.2,10.9,7.2,17.8c0,3.5-0.7,6.8-2.1,10.1
	c32.9,4.9,59.4,18.6,79.7,41.2s30.4,47.1,30.4,73.5c0,24.1,1.7,46.6,5.1,67.6s7.7,38.8,13,53.6s11.7,28.5,19.4,41.2
	c7.6,12.7,15,23.1,22.1,31.1C455.5,374.3,463.4,381.9,472,389.2z"/>
</svg>
