<?xml version="1.0" encoding="utf-8"?>
<!-- Generator: Adobe Illustrator 21.0.0, SVG Export Plug-In . SVG Version: 6.00 Build 0)  -->
<svg version="1.1" id="Capa_1" xmlns="http://www.w3.org/2000/svg" xmlns:xlink="http://www.w3.org/1999/xlink" x="0px" y="0px"
	 viewBox="0 0 512 512" style="enable-background:new 0 0 512 512;" xml:space="preserve">
<path d="M140.5,325.5l202-176.6c-7.3-15.3-19.2-29.4-32.5-38.1S285.8,96.8,263.9,95c-13.6-1.1-33,2.3-44.4,6.9
	c-11.2,4.7-20.1,11.5-26.8,18.7s-13,17.5-17.3,28.9c-4.5,12.6-3.7,27.4-3.7,34.9C170.5,228.8,161.5,280,140.5,325.5z M472.3,389.1
	c0,9-3.3,16.8-9.9,23.4s-14.4,9.9-23.4,9.9H322.6c0,18.4-6.5,34.1-19.5,47.1S274.4,489,256,489s-34-6.5-46.9-19.4
	s-19.5-28.6-19.6-46.9l45.7-43.5l162.8-1c-28.8-32.4-36.4-50.2-47-97.3l43.9-36.2C405.4,306.3,431.2,354.5,472.3,389.1z M491,86.7
	l-437.7,380l-34.7-38.1l26-22.2c-3.3-5.5-4.9-11.3-4.9-17.2c8.7-7.3,16.6-14.9,23.7-22.9s14.5-18.3,22.1-31.1
	c7.6-12.7,14.1-26.5,19.4-41.2s9.6-32.6,13-53.6s5.1-43.5,5.1-67.6c0-26.3,10.1-50.8,30.4-73.5s46.9-36.4,79.8-41.2
	c-1.4-3.3-2.1-6.7-2.1-10.1c0-6.9,2.4-12.8,7.3-17.7c4.9-4.9,10.7-7.3,17.7-7.3c6.9,0,12.8,2.4,17.7,7.3S281,41.1,281,48
	c0,3.5-0.7,6.8-2.1,10.1c21.5,3.1,40.5,10.3,56.9,21.4s29.3,24.8,38.5,41l83.9-71.7L491,86.7z"/>
</svg>
