<?xml version="1.0" encoding="utf-8"?>
<!-- Generator: Adobe Illustrator 21.0.0, SVG Export Plug-In . SVG Version: 6.00 Build 0)  -->
<svg version="1.1" id="Capa_1" xmlns="http://www.w3.org/2000/svg" xmlns:xlink="http://www.w3.org/1999/xlink" x="0px" y="0px"
	 viewBox="0 0 512 512" style="enable-background:new 0 0 512 512;" xml:space="preserve">
<path d="M472.3,389.1c0,9-3.3,16.8-9.9,23.4s-14.4,9.9-23.4,9.9H322.6c0,18.4-6.5,34.1-19.5,47.1S274.4,489,256,489
	s-34.1-6.5-47.1-19.5s-19.5-28.7-19.5-47.1H73c-9,0-16.8-3.3-23.4-9.9s-9.9-14.4-9.9-23.4c8.7-7.3,16.6-14.9,23.7-22.9
	s14.5-18.3,22.1-31.1c7.6-12.7,14.1-26.5,19.4-41.2s9.6-32.6,13-53.6s5.1-43.5,5.1-67.6c0-26.3,10.1-50.8,30.4-73.5
	s46.9-36.4,79.8-41.2c-1.4-3.3-2.1-6.7-2.1-10.1c0-6.9,2.4-12.8,7.3-17.7c4.9-4.9,10.7-7.3,17.7-7.3c6.9,0,12.8,2.4,17.7,7.3
	S281,41.1,281,48c0,3.5-0.7,6.8-2.1,10.1c32.9,4.9,59.5,18.6,79.8,41.2s30.4,47.1,30.4,73.5c0,24.1,1.7,46.6,5.1,67.6
	s7.7,38.8,13,53.6s11.7,28.5,19.4,41.2c7.6,12.7,15,23.1,22.1,31.1C455.8,374.2,463.7,381.8,472.3,389.1z"/>
</svg>
