<?xml version="1.0" encoding="utf-8"?>
<!-- Generator: Adobe Illustrator 21.0.0, SVG Export Plug-In . SVG Version: 6.00 Build 0)  -->
<svg version="1.1" id="Capa_1" xmlns="http://www.w3.org/2000/svg" xmlns:xlink="http://www.w3.org/1999/xlink" x="0px" y="0px"
	 viewBox="0 0 512 512" style="enable-background:new 0 0 512 512;" xml:space="preserve">
<g>
	<path d="M448.8,366.3c-7.1-8-14.5-18.4-22.1-31.1c-7.7-12.7-14.1-26.4-19.4-41.2c-5.3-14.8-9.6-32.6-13-53.6
		c-3.4-21-5.1-43.5-5.1-67.6c0-26.4-10.1-50.9-30.4-73.5S312,63,279.1,58.1c1.4-3.3,2.1-6.6,2.1-10.1c0-6.9-2.3-12.9-7.2-17.8
		c-4.9-4.9-10.8-7.3-17.7-7.3c-7,0-12.8,2.4-17.7,7.3c-4.9,4.9-7.3,10.8-7.3,17.7c0,3.4,0.7,6.8,2.1,10.1
		c-32.9,4.8-59.4,18.5-79.7,41.2s-30.4,47.2-30.4,73.5c0,24.1-1.7,46.6-5.1,67.6s-7.7,38.9-13,53.6s-11.8,28.5-19.4,41.2
		c-7.6,12.8-15,23.1-22.1,31.1c-7.1,8-15,15.6-23.7,22.9c0,9,3.3,16.8,9.9,23.4c6.6,6.6,14.4,9.9,23.4,9.9h116.2
		c0,18.4,6.5,34.1,19.5,47.1c12.9,13,28.7,19.5,47,19.5s34-6.5,47-19.5s19.5-28.7,19.5-47.1h116.2c9,0,16.8-3.3,23.4-9.9
		c6.6-6.6,9.9-14.4,9.9-23.4C463.4,381.8,455.5,374.3,448.8,366.3z"/>
	<path d="M434.4,178.7h42.2C472.4,114.3,440.6,57.5,393,20l-29.5,30.4C403.4,80.3,430.3,126.2,434.4,178.7z"/>
	<path d="M148.6,50.3L119,20c-47.7,37.5-79.5,94.3-83.6,158.7h42.2C81.7,126.2,108.6,80.3,148.6,50.3z"/>
</g>
</svg>
