<?xml version="1.0" encoding="utf-8"?>
<!-- Generator: Adobe Illustrator 21.0.0, SVG Export Plug-In . SVG Version: 6.00 Build 0)  -->
<svg version="1.1" id="Capa_1" xmlns="http://www.w3.org/2000/svg" xmlns:xlink="http://www.w3.org/1999/xlink" x="0px" y="0px"
	 viewBox="0 0 512 512" style="enable-background:new 0 0 512 512;" xml:space="preserve">
<path d="M394.8,244.6c10.6,61.7,36.4,109.9,77.5,144.6c0,9-3.3,16.8-9.9,23.4s-14.4,9.9-23.4,9.9H322.6c0,18.4-6.5,34.1-19.5,47.1
	S274.4,489,256,489s-34-6.5-46.9-19.4s-19.5-28.6-19.6-46.9L394.8,244.6z M491,86.7l-437.7,380l-34.7-38.1l26-22.2
	c-3.3-5.5-4.9-11.3-4.9-17.2c8.7-7.3,16.6-14.9,23.7-22.9s14.5-18.3,22.1-31.1c7.6-12.7,14.1-26.5,19.4-41.2s9.6-32.6,13-53.6
	s5.1-43.5,5.1-67.6c0-26.3,10.1-50.8,30.4-73.5s46.9-36.4,79.8-41.2c-1.4-3.3-2.1-6.7-2.1-10.1c0-6.9,2.4-12.8,7.3-17.7
	c4.9-4.9,10.7-7.3,17.7-7.3c6.9,0,12.8,2.4,17.7,7.3S281,41.1,281,48c0,3.5-0.7,6.8-2.1,10.1c21.5,3.1,40.5,10.3,56.9,21.4
	s29.3,24.8,38.5,41l83.9-71.7L491,86.7z"/>
</svg>
