<?xml version="1.0" encoding="utf-8"?>
<!-- Generator: Adobe Illustrator 21.0.0, SVG Export Plug-In . SVG Version: 6.00 Build 0)  -->
<svg version="1.1" id="Capa_1" xmlns="http://www.w3.org/2000/svg" xmlns:xlink="http://www.w3.org/1999/xlink" x="0px" y="0px"
	 viewBox="0 0 512 512" style="enable-background:new 0 0 512 512;" xml:space="preserve">
<path d="M465.9,229.8c0,0-13.7-93.5-19.8-131.3c-1.6-9.9-8-18.3-17.1-22.5C319.5,25.3,188.9,29.2,84.1,77
	c-9.2,4.2-15.7,12.7-17.3,22.7C60.8,137,47,228.8,47,228.8l-0.8,201h31L78,454c0,0,4,28.1,32.5,28.5C139.1,482.9,143,454,143,454
	l1.3-24.2h224.8l0.8,24.2c0,0,4,28.1,32.5,28.5c28.6,0.4,32.5-28.5,32.5-28.5l1.3-24.2h29.6v-200H465.9z M429.2,344.6
	c0,14.6-11.9,26.5-26.5,26.5s-26.5-11.9-26.5-26.5s11.9-26.5,26.5-26.5C417.3,318.1,429.2,329.9,429.2,344.6z M97.2,231.3
	l12.3-107.7c0.7-6.1,5.8-10.6,11.9-10.6H392c6.1,0,11.2,4.6,11.9,10.6l12.3,107.7c0.8,7.1-4.8,13.4-11.9,13.4H109.1
	C101.9,244.7,96.4,238.4,97.2,231.3z M110.6,318.1c14.6,0,26.5,11.9,26.5,26.5s-11.9,26.5-26.5,26.5s-26.5-11.9-26.5-26.5
	C84.1,329.9,95.9,318.1,110.6,318.1z"/>
</svg>
