<?xml version="1.0" encoding="utf-8"?>
<!-- Generator: Adobe Illustrator 21.0.0, SVG Export Plug-In . SVG Version: 6.00 Build 0)  -->
<svg version="1.1" id="Capa_1" xmlns="http://www.w3.org/2000/svg" xmlns:xlink="http://www.w3.org/1999/xlink" x="0px" y="0px"
	 viewBox="0 0 512 512" style="enable-background:new 0 0 512 512;" xml:space="preserve">
<g>
	<g>
		<rect x="222.7" y="212.8" width="70" height="70.8"/>
	</g>
</g>
<g>
	<g>
		<rect x="222.7" y="330.7" width="70" height="70.8"/>
	</g>
</g>
<g>
	<g>
		<rect x="109.3" y="330.7" width="70" height="70.8"/>
	</g>
</g>
<g>
	<g>
		<rect x="335.3" y="212.8" width="70" height="70.8"/>
	</g>
</g>
<g>
	<g>
		<path d="M437.7,86.5v49.7h-104L333,86.5H183.7l0.7,49.7h-104V86.5H25.6v395.8h461V86.5H437.7z M438.1,441H77.9V174h360.2V441z"/>
	</g>
</g>
<g>
	<g>
		<rect x="109.3" y="212.8" width="70" height="70.8"/>
	</g>
</g>
<g>
	<g>
		<polygon points="108.7,24.3 108.7,109.7 150,109.7 150,24.3 		"/>
	</g>
</g>
<g>
	<g>
		<polygon points="367.3,24.3 367.3,109.7 407.3,109.7 407.3,24.3 		"/>
	</g>
</g>
</svg>
