<?xml version="1.0" encoding="utf-8"?>
<!-- Generator: Adobe Illustrator 21.0.0, SVG Export Plug-In . SVG Version: 6.00 Build 0)  -->
<svg version="1.1" id="Capa_1" xmlns="http://www.w3.org/2000/svg" xmlns:xlink="http://www.w3.org/1999/xlink" x="0px" y="0px"
	 viewBox="0 0 512 512" style="enable-background:new 0 0 512 512;" xml:space="preserve">
<g>
	<path class="st0" d="M99.1,89.9C7.4,176.5,3.2,321,89.9,412.8c1.5,1.6,3.1,3.2,4.6,4.8c89.2,89.2,233.9,89.2,323.1,0
		c89.2-89.2,89.2-233.9,0-323.1C330.2,7,189.1,5,99.1,89.9z M143,188.2l45.2-45.2l67.8,67.8l67.8-67.8l45.2,45.2l-67.8,67.9
		l67.8,67.8l-45.2,45.2L256,301.3l-67.8,67.8L143,323.9l67.8-67.8L143,188.2z"/>
</g>
</svg>
