<?xml version="1.0" encoding="utf-8"?>
<!-- Generator: Adobe Illustrator 21.0.0, SVG Export Plug-In . SVG Version: 6.00 Build 0)  -->
<svg version="1.1" id="Capa_1" xmlns="http://www.w3.org/2000/svg" xmlns:xlink="http://www.w3.org/1999/xlink" x="0px" y="0px"
	 viewBox="0 0 512 512" style="enable-background:new 0 0 512 512;" xml:space="preserve">
<g>
	<g>
		<path d="M324.3,151.8L256,220.3l-68.3-68.5l-35.9,35.9l68.5,68.3l-68.5,68.3l35.9,35.9l68.3-68.5l68.2,68.4l36-35.8L291.7,256
			l68.5-68.3L324.3,151.8z"/>
	</g>
</g>
<g>
	<g>
		<path d="M256,29.9C131.1,29.9,29.9,131.1,29.9,256S131.1,482.1,256,482.1S482.1,380.9,482.1,256S380.9,29.9,256,29.9z M256,437.2
			C155.9,437.2,74.8,356,74.8,256S155.9,74.8,256,74.8C356,74.9,437.1,156,437.2,256C437.2,356.1,356.1,437.2,256,437.2z"/>
	</g>
</g>
</svg>
