<?xml version="1.0" encoding="utf-8"?>
<!-- Generator: Adobe Illustrator 21.0.0, SVG Export Plug-In . SVG Version: 6.00 Build 0)  -->
<svg version="1.1" id="Capa_1" xmlns="http://www.w3.org/2000/svg" xmlns:xlink="http://www.w3.org/1999/xlink" x="0px" y="0px"
	 viewBox="0 0 512 512" style="enable-background:new 0 0 512 512;" xml:space="preserve">
<g>
	<path d="M292.8,198.9l-34.7,34.7l31.3,31.3c6.1,6.1,9.5,14.3,9.5,23c0,8.7-3.4,16.9-9.5,23L176.6,423.7c-12.7,12.7-33.3,12.7-46,0
		l-31.3-31.3c-6.1-6.1-9.5-14.3-9.5-23c0-8.7,3.4-16.9,9.5-23l52.5-55.5l-34.7-34.7l-52.5,55.5c-15.4,15.4-23.9,35.9-23.9,57.7
		c0,21.8,8.5,42.3,23.9,57.7l31.3,31.3c15.9,15.9,36.8,23.9,57.7,23.9c20.9,0,41.8-8,57.7-23.9l112.8-112.8
		c15.4-15.4,23.9-35.9,23.9-57.7c0-21.8-8.5-42.3-23.9-57.7L292.8,198.9z"/>
	<path d="M447.4,84.9l-31.3-31.3c-15.4-15.4-35.9-23.9-57.7-23.9c-21.8,0-42.3,8.5-57.7,23.9L187.9,166.4
		c-15.4,15.4-23.9,35.9-23.9,57.7c0,21.8,8.5,42.3,23.9,57.7l31.3,31.3l34.7-34.7l-31.3-31.3c-6.1-6.1-9.5-14.3-9.5-23
		c0-8.7,3.4-16.9,12.5-25L338.4,86.3c3.1-4.1,11.3-7.5,20-7.5s16.9,3.4,23,9.5l31.3,31.3c6.1,6.1,9.5,13.3,9.5,22
		c0,8.7-3.4,17.9-9.5,24l-50.5,51.5l34.7,34.7l50.5-51.5c15.4-15.4,23.9-35.9,23.9-57.7C471.3,120.8,462.8,100.3,447.4,84.9z"/>
</g>
</svg>
