<?xml version="1.0" encoding="utf-8"?>
<!-- Generator: Adobe Illustrator 21.0.0, SVG Export Plug-In . SVG Version: 6.00 Build 0)  -->
<svg version="1.1" id="Capa_1" xmlns="http://www.w3.org/2000/svg" xmlns:xlink="http://www.w3.org/1999/xlink" x="0px" y="0px"
	 viewBox="0 0 512 512" style="enable-background:new 0 0 512 512;" xml:space="preserve">
<g>
	<path d="M211.9,307.6l183.8-0.2l0.3-230.7c-0.1-19.3-15.8-35-35.1-35H63.6c-19.3,0-35,15.8-35,35v195.9c0,19.3,15.6,35,34.9,35
		l52,0v87.8L211.9,307.6z"/>
	<path d="M451.1,117h-19.3v224.6H238.2l-47.9,43.9l132.6-0.1v84.9l93.3-85l22.3,0c24.8,0,44.8-20.1,44.8-44.9v-191
		C483.4,131.6,468.9,117,451.1,117z"/>
</g>
</svg>
