<?xml version="1.0" encoding="utf-8"?>
<!-- Generator: Adobe Illustrator 21.0.0, SVG Export Plug-In . SVG Version: 6.00 Build 0)  -->
<svg version="1.1" id="Capa_1" xmlns="http://www.w3.org/2000/svg" xmlns:xlink="http://www.w3.org/1999/xlink" x="0px" y="0px"
	 viewBox="0 0 512 512" style="enable-background:new 0 0 512 512;" xml:space="preserve">
<path d="M436.2,87c0-35.5-82-67.5-180.2-67.5S75.8,51.4,75.8,87v338.3l0,0c0.2,35.4,82.1,67.3,180.2,67.3
	c98.2,0,180.2-32,180.2-67.5C436.2,424.7,436.2,89.1,436.2,87z M257.2,50.6c55.1,0,125.5,16.6,125.5,36.5s-70.5,38.3-125.5,38.3
	S127,107,127,87.1S202.1,50.6,257.2,50.6z M385,418.8c0,19.9-73.9,35.1-129,35.1c-9.1,0-18.4-0.3-27.5-1.1V161.2
	c9,0.5,18.2,0.9,27.5,0.9c43,0,100.9-9.2,130.4-22.5C386.4,139.6,385,418.3,385,418.8z"/>
</svg>
