<?xml version="1.0" encoding="utf-8"?>
<!-- Generator: Adobe Illustrator 21.0.0, SVG Export Plug-In . SVG Version: 6.00 Build 0)  -->
<svg version="1.1" id="Capa_1" xmlns="http://www.w3.org/2000/svg" xmlns:xlink="http://www.w3.org/1999/xlink" x="0px" y="0px"
	 viewBox="0 0 512 512" style="enable-background:new 0 0 512 512;" xml:space="preserve">
<g>
	<path d="M256,26.5C129.8,26.5,26.5,129.8,26.5,256S129.8,485.5,256,485.5S485.5,382.2,485.5,256S382.2,26.5,256,26.5z M277.4,438.6
		V394h-42.8v44.6c-84.8-10-152.4-78.2-161.5-163.2H121v-38.8H73.1c9-85,76.7-153.3,161.5-163.2V118h42.8V73.4
		c84.8,10,152.4,78.2,161.5,163.2H393v38.8h45.9C429.8,360.4,362.2,428.7,277.4,438.6z"/>
	<polygon points="259.7,244.2 177.6,156.1 146.2,185.3 257.6,304.7 374.6,195.6 345.4,164.3 	"/>
</g>
</svg>
