<?xml version="1.0" encoding="utf-8"?>
<!-- Generator: Adobe Illustrator 21.0.0, SVG Export Plug-In . SVG Version: 6.00 Build 0)  -->
<svg version="1.1" id="Capa_1" xmlns="http://www.w3.org/2000/svg" xmlns:xlink="http://www.w3.org/1999/xlink" x="0px" y="0px"
	 viewBox="0 0 512 512" style="enable-background:new 0 0 512 512;" xml:space="preserve">
<g>
	<g>
		<g>
			<g>
				<path class="st0" d="M481.7,281.6c0.9-8.4,1.4-17,1.4-25.6c0-8.7-0.6-17.3-1.4-25.7l-62.1-22.7c-3.6-12.8-8.5-24.9-14.7-36.3
					l28.2-60.9c-10.5-13.4-22.3-25.6-35.4-36.3l-59.5,29c-11-6.3-22.9-11.3-35.3-15l-22-63.7c-8.2-0.9-16.5-1.5-25-1.5
					c-8.5,0-16.8,0.6-25,1.5l-22,63.6c-12.4,3.7-24.3,8.7-35.3,15l-59.4-29c-13.1,10.8-24.9,22.9-35.4,36.3l28.2,60.9
					c-6.1,11.4-11,23.5-14.6,36.3l-62.1,22.7c-0.9,8.4-1.4,17-1.4,25.7c0,8.7,0.5,17.3,1.4,25.7l62.1,22.7
					c3.6,12.8,8.4,24.9,14.6,36.3l-28.2,61c10.5,13.4,22.3,25.6,35.4,36.3l59.4-29c11.1,6.3,22.9,11.3,35.4,15l22.1,63.7
					c8.2,0.9,16.5,1.5,25,1.5c8.5,0,16.8-0.6,25-1.5l22.1-63.8c12.4-3.7,24.2-8.7,35.3-15l59.4,29c13.1-10.8,25-22.9,35.4-36.3
					l-28.2-61c6.1-11.4,11-23.6,14.6-36.3L481.7,281.6z M256,346.4c-48.7,0-88.2-40.5-88.2-90.5s39.5-90.5,88.2-90.5
					s88.2,40.5,88.2,90.5S304.7,346.4,256,346.4z"/>
			</g>
		</g>
	</g>
</g>
</svg>
