<?xml version="1.0" encoding="utf-8"?>
<!-- Generator: Adobe Illustrator 21.0.0, SVG Export Plug-In . SVG Version: 6.00 Build 0)  -->
<svg version="1.1" id="Capa_1" xmlns="http://www.w3.org/2000/svg" xmlns:xlink="http://www.w3.org/1999/xlink" x="0px" y="0px"
	 viewBox="0 0 512 512" style="enable-background:new 0 0 512 512;" xml:space="preserve">
<g>
	<path d="M50.8,127.6c-4.7,0-8.4,3.7-8.4,8.4v349.1c0,4.7,3.7,8.4,8.4,8.4h308.2c4.7,0,8.4-3.7,8.4-8.4V229.3L278,127.6H50.8z
		 M338.3,465.4H71.8V157.9h182.5l-0.1,86.1c0.1,4.6,3.8,8.3,8.4,8.3l75.7-0.1V465.4z"/>
	<path d="M381.1,17.4H149.9c-4.7,0-8.4,3.7-8.4,8.4v68.9h31.5V45.8h184.4l-0.1,85.1c0.1,4.6,3.8,8.3,8.4,8.3l76.7-0.1v212.1h-38.1
		v30.3h59.8c4.7,0,8.4-3.7,8.4-8.4V116.3L381.1,17.4z"/>
	<rect x="106.1" y="310.2" width="129.3" height="30.4"/>
	<rect x="106.1" y="384.5" width="189.6" height="29.4"/>
</g>
</svg>
