<?xml version="1.0" encoding="utf-8"?>
<!-- Generator: Adobe Illustrator 21.0.0, SVG Export Plug-In . SVG Version: 6.00 Build 0)  -->
<svg version="1.1" id="Capa_1" xmlns="http://www.w3.org/2000/svg" xmlns:xlink="http://www.w3.org/1999/xlink" x="0px" y="0px"
	 viewBox="0 0 512 512" style="enable-background:new 0 0 512 512;" xml:space="preserve">
<g>
	<path d="M43.1,127.5c-4.8,0-8.6,3.8-8.6,8.6v354.2c0,4.8,3.8,8.6,8.6,8.6h320.6c4.8,0,8.6-3.8,8.6-8.6v-262L279,127.5H43.1z
		 M341.5,468.1h-275V158.4h188.2l-0.1,84.8c0.1,4.7,3.9,8.5,8.6,8.5l78.3-0.1V468.1z"/>
	<path d="M384.2,13.1h-236c-4.8,0-8.6,3.8-8.6,8.6v78.4h32.1v-56h188.2l-0.1,84.8c0.1,4.7,3.9,8.5,8.6,8.5l78.3-0.1v216.4h-42.9
		v30.9h65.1c4.8,0,8.6-3.8,8.6-8.6V114L384.2,13.1z"/>
	<rect x="102.5" y="326.9" width="134" height="36.1"/>
	<rect x="102.5" y="396.8" width="195.5" height="36.1"/>
</g>
</svg>
