<?xml version="1.0" encoding="utf-8"?>
<!-- Generator: Adobe Illustrator 21.0.0, SVG Export Plug-In . SVG Version: 6.00 Build 0)  -->
<svg version="1.1" id="Capa_1" xmlns="http://www.w3.org/2000/svg" xmlns:xlink="http://www.w3.org/1999/xlink" x="0px" y="0px"
	 viewBox="0 0 512 512" style="enable-background:new 0 0 512 512;" xml:space="preserve">
<g>
	<path d="M482.8,216.2H29c-7.2,0-10.8,4.9-9.9,11.9L58,475.3c0.8,5.1,4.9,8.7,9.9,8.7h376c5,0,9.2-3.7,9.9-8.8l38.9-247.1
		C493.8,221.4,491.9,216.2,482.8,216.2z M382.1,355H128.6l-13.2-79.6h42.1l6.6,39.5l185.6-0.5l6.6-39h40L382.1,355z"/>
	<rect x="62.7" y="121.2" width="386.7" height="53.6"/>
	<polygon points="395.2,81.6 395.2,28 395.2,28 116.9,28 116.9,81.6 395.2,81.6 	"/>
</g>
</svg>
