<?xml version="1.0" encoding="utf-8"?>
<!-- Generator: Adobe Illustrator 21.0.0, SVG Export Plug-In . SVG Version: 6.00 Build 0)  -->
<svg version="1.1" id="Capa_1" xmlns="http://www.w3.org/2000/svg" xmlns:xlink="http://www.w3.org/1999/xlink" x="0px" y="0px"
	 viewBox="0 0 512 512" style="enable-background:new 0 0 512 512;" xml:space="preserve">
<path class="st0" d="M256,26.5C129.8,26.5,26.5,129.8,26.5,256S129.8,485.5,256,485.5S485.5,382.2,485.5,256S382.2,26.5,256,26.5z
	 M77.5,256c0-37.6,11.8-72.6,31.8-101.4l248.1,248.1c-28.8,20-63.8,31.8-101.4,31.8C157.8,434.5,77.5,354.2,77.5,256z M402.7,357.4
	L154.6,109.3c28.8-20,63.8-31.8,101.4-31.8c98.2,0,178.5,80.3,178.5,178.5C434.5,293.6,422.7,328.6,402.7,357.4z"/>
</svg>
