<?xml version="1.0" encoding="utf-8"?>
<!-- Generator: Adobe Illustrator 21.0.0, SVG Export Plug-In . SVG Version: 6.00 Build 0)  -->
<svg version="1.1" id="Capa_1" xmlns="http://www.w3.org/2000/svg" xmlns:xlink="http://www.w3.org/1999/xlink" x="0px" y="0px"
	 viewBox="0 0 512 512" style="enable-background:new 0 0 512 512;" xml:space="preserve">
<g>
	<path d="M80.8,440.2v-283H37l65.8-85.3l65.7,85.3h-42.7v283L80.8,440.2z"/>
	<g>
		<path d="M228.5,465H475V288H228.5V465z M268.4,326.6h165.7v97.8c0,1.7-1.4,3-3,3H268.4V326.6z"/>
		<polygon points="272.5,88 327.4,88 327.4,47 228.5,47 228.5,117 272.5,117 		"/>
		<polygon points="381.2,47 381.2,88 430.1,88 430.1,117 475,117 475,47 		"/>
		<polygon points="327.3,188 272.4,188 272.4,160 228.3,160 228.4,228 327.3,228 		"/>
		<polygon points="430,188 381.2,188 381.1,228 475,228 475,160 430,160 		"/>
	</g>
</g>
</svg>
