<?xml version="1.0" encoding="utf-8"?>
<!-- Generator: Adobe Illustrator 21.0.0, SVG Export Plug-In . SVG Version: 6.00 Build 0)  -->
<svg version="1.1" id="Capa_1" xmlns="http://www.w3.org/2000/svg" xmlns:xlink="http://www.w3.org/1999/xlink" x="0px" y="0px"
	 viewBox="0 0 512 512" style="enable-background:new 0 0 512 512;" xml:space="preserve">
<g>
	<path d="M125.8,71.9v283h42.7l-65.7,85.3L37,354.8h43.8v-283L125.8,71.9z"/>
	<g>
		<path d="M228.5,224H475V47H228.5V224z M268.4,84.6h162.7c1.6,0,3,1.3,3,3v97.8H268.4V84.6z"/>
		<polygon points="272.5,424 327.4,424 327.4,465 228.5,465 228.5,395 272.5,395 		"/>
		<polygon points="381.2,465 381.2,424 430.1,424 430.1,395 475,395 475,465 		"/>
		<polygon points="327.3,324 272.4,324 272.4,352 228.3,352 228.4,284 327.3,284 		"/>
		<polygon points="430,324 381.2,324 381.1,284 475,284 475,352 430,352 		"/>
	</g>
</g>
</svg>
