<?xml version="1.0" encoding="utf-8"?>
<!-- Generator: Adobe Illustrator 21.0.0, SVG Export Plug-In . SVG Version: 6.00 Build 0)  -->
<svg version="1.1" id="Capa_1" xmlns="http://www.w3.org/2000/svg" xmlns:xlink="http://www.w3.org/1999/xlink" x="0px" y="0px"
	 viewBox="0 0 512 512" style="enable-background:new 0 0 512 512;" xml:space="preserve">
<g>
	<path d="M473.2,245c-2.6-3.1-45.1-52-108.6-84.4c-6.4,11.3-12.4,22.4-18.8,33.7c42.2,21,73.4,50.9,88.4,66.4
		c-23.4,24.2-89.5,84.2-169,88.9c-0.2,0.5-19.9,37.6-20.7,39.1c4.2,0.3,6.7,0.3,11,0.3c119.9,0,213.8-108.2,217.7-112.8
		C480.9,267.2,480.9,254.1,473.2,245z"/>
	<path d="M348.7,241.5c0-12.4-3.1-24.6-7.6-35.4c-8.1,15-63.4,116.5-68.3,125C315.9,323.9,348.7,286.5,348.7,241.5z"/>
	<path d="M317.4,78.6l-29,56.7c-10.4-1.6-21-2.5-32-2.5C136.5,132.9,42.7,241,38.8,245.6c-7.7,9.1-7.7,22.2,0,31.2
		c2.9,3.4,54.4,62.8,129.2,94l-21.8,42.5c-0.8,1.5-0.2,3.3,1.3,4l33.9,17.2c1.5,0.8,3.3,0.2,4-1.3L356.7,98.5c0.8-1.5,0.2-3.3-1.3-4
		l-33.9-17.1C320,76.6,318.1,77.2,317.4,78.6z M185.7,335.8c-51.1-20.3-90.9-57.1-108-74.6c16.4-17,54-51.7,102.4-72.5
		c-9.4,14.3-15,31.4-15,49.8c0,28.6,13.3,54.2,34.2,70.9L185.7,335.8z M226.2,257.1c-8.5,4.7-17.8,5.8-25,1.8
		c-13.5-7.3-16.6-27.4-6.9-45.1c9.7-17.7,28.4-26,41.9-18.8c6.6,3.6,11.1,10,12.8,17.6L226.2,257.1z"/>
</g>
</svg>
