<?xml version="1.0" encoding="utf-8"?>
<!-- Generator: Adobe Illustrator 21.0.0, SVG Export Plug-In . SVG Version: 6.00 Build 0)  -->
<svg version="1.1" id="Capa_1" xmlns="http://www.w3.org/2000/svg" xmlns:xlink="http://www.w3.org/1999/xlink" x="0px" y="0px"
	 viewBox="0 0 512 512" style="enable-background:new 0 0 512 512;" xml:space="preserve">
<g>
	<path d="M473.2,240.4c-3.9-4.6-97.6-112.9-217.2-112.9S42.7,235.8,38.8,240.4c-7.7,9.1-7.7,22.2,0,31.3
		c3.9,4.6,97.6,112.9,217.2,112.9s213.3-108.3,217.2-112.9C480.9,262.5,480.9,249.4,473.2,240.4z M244.1,233.3
		c-9.7,17.7-30,27.8-43.5,20.4c-13.4-7.3-16.5-27.6-6.8-45.2c9.7-17.7,28.4-26.1,41.8-18.8C249.1,197,253.8,215.6,244.1,233.3z
		 M256,345.2c-83.6,0-153.9-64.1-178.3-89.3c16.4-17,53.9-51.7,102.2-72.5c-9.4,14.3-15,31.5-15,49.8c0,50.2,40.8,91,91.1,91
		s91.1-40.8,91.1-91c0-18.4-5.5-35.6-14.9-49.8c48.3,20.8,85.8,55.5,102.2,72.5C409.9,281.1,339.6,345.2,256,345.2z"/>
</g>
</svg>
