<?xml version="1.0" encoding="utf-8"?>
<!-- Generator: Adobe Illustrator 21.0.0, SVG Export Plug-In . SVG Version: 6.00 Build 0)  -->
<svg version="1.1" id="Capa_1" xmlns="http://www.w3.org/2000/svg" xmlns:xlink="http://www.w3.org/1999/xlink" x="0px" y="0px"
	 viewBox="0 0 512 512" style="enable-background:new 0 0 512 512;" xml:space="preserve">
<path d="M478.1,187h-32.8l0.6-57.8c0.1-7.2-5.8-13.1-13-13.1H245.1L189.8,61L33.9,61c-7.2,0-13,5.8-13,13v363.8c0,7.2,5.8,13,13,13
	l355.1,0.2c5.4,0,10.3-3.4,12.2-8.4l89.2-238C493.5,196.1,487.2,187,478.1,187z M54.2,94.8l115.5,0l53.3,54.1h187.1l0.4,38.1H125.9
	c-5.4,0-10.3,3.3-12.2,8.4L53.3,379.2L54.2,94.8z M374.3,422l-301.4-0.9l69.7-204.7h307.4L374.3,422z"/>
</svg>
