<?xml version="1.0" encoding="utf-8"?>
<!-- Generator: Adobe Illustrator 21.0.0, SVG Export Plug-In . SVG Version: 6.00 Build 0)  -->
<svg version="1.1" id="Capa_1" xmlns="http://www.w3.org/2000/svg" xmlns:xlink="http://www.w3.org/1999/xlink" x="0px" y="0px"
	 viewBox="0 0 512 512" style="enable-background:new 0 0 512 512;" xml:space="preserve">
<g>
	<path class="st0" d="M489.7,179.3l-266-127.1c-3.1-1.5-6.8-0.2-8.3,2.9l-55.9,112.2H201l37.5-71l212.6,100.2L382,346.4L358.4,335
		v79.8l16,5.9c3.1,1.5,6.8,0.2,8.3-2.9l109.9-230.2C494.2,184.5,492.8,180.7,489.7,179.3z"/>
	<path class="st0" d="M319.8,192.9H24.9c-3.4,0-6.2,2.8-6.2,6.2v255.1c0,3.4,2.8,6.2,6.2,6.2h294.8c3.4,0,6.2-2.8,6.2-6.2V199.1
		C326,195.7,323.2,192.9,319.8,192.9z M292.7,388.4H271l-39.5-54.9L176,388.4l-50.5-93.9l-45.1,93.9H51.2V226.1h241.6v162.3H292.7z"
		/>
	<circle class="st0" cx="235.4" cy="275" r="27.3"/>
</g>
</svg>
