<?xml version="1.0" encoding="utf-8"?>
<!-- Generator: Adobe Illustrator 21.0.0, SVG Export Plug-In . SVG Version: 6.00 Build 0)  -->
<svg version="1.1" id="Capa_1" xmlns="http://www.w3.org/2000/svg" xmlns:xlink="http://www.w3.org/1999/xlink" x="0px" y="0px"
	 viewBox="0 0 512 512" style="enable-background:new 0 0 512 512;" xml:space="preserve">
<g>
	<g>
		<path d="M455.1,85.7c-23-26.9-54.9-41.7-89.8-41.7c-49.1,0-80.2,30.2-97.6,55.5c-4.5,6.6-8.4,13.2-11.6,19.4
			c-3.2-6.2-7.1-12.8-11.6-19.4C227.1,74.2,196,44,146.9,44C112,44,80.1,58.8,57.1,85.7c-21.9,25.6-34,59.9-34,96.6
			c0,39.9,15.1,77.1,47.6,116.9c29,35.6,70.8,72.3,119.2,114.7c18,15.8,36.7,32.2,56.5,50.1l0.6,0.5c2.6,2.3,5.8,3.5,9,3.5
			c3.2,0,6.4-1.2,9-3.5l0.6-0.5c19.9-17.9,38.5-34.3,56.5-50.1c48.4-42.5,90.2-79.1,119.2-114.7c32.5-39.8,47.6-77,47.6-116.9
			C489.1,145.6,477,111.3,455.1,85.7z M298.6,375.7c-13.9,11.5-28.3,23.5-43.5,36.3c-15.2-12.8-29.6-24.7-43.5-36.3
			C131.1,300.5,81.6,260,74.1,197c-3-25.1,1.5-56.3,17.3-73.7c19.3-23.7,41.2-27.5,65.3-24.3c33,4.3,52.1,23,67.8,42.1
			c19.8,26.4,30.5,44.5,30.5,44.5s18.5-30.4,30.5-44.5c14.8-17,36.2-34.8,68.2-39.8c22.4-3.5,54.9,4.8,68.3,25.2
			c14.7,22.2,16.5,48.4,13.5,73.5C428.1,262.5,381.1,303.5,298.6,375.7z"/>
	</g>
</g>
</svg>
