<?xml version="1.0" encoding="utf-8"?>
<!-- Generator: Adobe Illustrator 21.0.0, SVG Export Plug-In . SVG Version: 6.00 Build 0)  -->
<svg version="1.1" id="Capa_1" xmlns="http://www.w3.org/2000/svg" xmlns:xlink="http://www.w3.org/1999/xlink" x="0px" y="0px"
	 viewBox="0 0 512 512" style="enable-background:new 0 0 512 512;" xml:space="preserve">
<g>
	<g>
		<path d="M455.1,85.7c-23-26.9-54.9-41.7-89.8-41.7c-49.1,0-80.2,30.2-97.6,55.5c-4.5,6.6-8.4,13.2-11.6,19.4
			c-3.2-6.2-7.1-12.8-11.6-19.4C227.1,74.2,196,44,146.9,44C112,44,80.1,58.8,57.1,85.7c-21.9,25.6-34,59.9-34,96.6
			c0,39.9,15.1,77.1,47.6,116.9c29,35.6,70.8,72.3,119.2,114.7c18,15.8,36.7,32.2,56.5,50.1l0.6,0.5c2.6,2.3,5.8,3.5,9,3.5
			s6.4-1.2,9-3.5l0.6-0.5c19.9-17.9,38.5-34.3,56.5-50.1c48.4-42.5,90.2-79.1,119.2-114.7c32.5-39.8,47.6-77,47.6-116.9
			C489.1,145.6,477,111.3,455.1,85.7z"/>
	</g>
</g>
</svg>
