<?xml version="1.0" encoding="utf-8"?>
<!-- Generator: Adobe Illustrator 21.0.0, SVG Export Plug-In . SVG Version: 6.00 Build 0)  -->
<svg version="1.1" id="Capa_1" xmlns="http://www.w3.org/2000/svg" xmlns:xlink="http://www.w3.org/1999/xlink" x="0px" y="0px"
	 viewBox="0 0 512 512" style="enable-background:new 0 0 512 512;" xml:space="preserve">
<polygon points="385.2,295.9 385.2,257.8 300.8,257.8 300.8,161.4 261.2,161.4 261.2,295.9 "/>
<path d="M289.5,54.4C179.2,54.4,90,142.7,88,252.3l-67.5-0.4l86,104.6L200.2,253l-67.3-0.4c1.8-85,71.3-153.4,156.8-153.4
	c86.7,0,156.8,70.1,156.8,156.8c0,86.6-70.2,156.8-156.8,156.8c-19.4,0-37.8-3.6-54.9-10l-32.4,34.8c0.2,0.2,0.4,0.3,0.7,0.5
	c26.2,12.5,55.5,19.5,86.4,19.5c111.4,0,201.7-90.3,201.7-201.6S400.9,54.4,289.5,54.4z"/>
</svg>
