<?xml version="1.0" encoding="utf-8"?>
<!-- Generator: Adobe Illustrator 21.0.0, SVG Export Plug-In . SVG Version: 6.00 Build 0)  -->
<svg version="1.1" id="Capa_1" xmlns="http://www.w3.org/2000/svg" xmlns:xlink="http://www.w3.org/1999/xlink" x="0px" y="0px"
	 viewBox="0 0 512 512" style="enable-background:new 0 0 512 512;" xml:space="preserve">
<g>
	<path d="M256,26.5C129.3,26.5,26.5,129.2,26.5,256c0,126.7,102.7,229.5,229.5,229.5c126.7,0,229.5-102.8,229.5-229.5
		C485.5,129.2,382.7,26.5,256,26.5z M256,444.2C152,444.2,67.8,360,67.8,256S152,67.7,256,67.7c103.9,0,188.2,84.3,188.2,188.3
		S359.9,444.2,256,444.2z"/>
	<path d="M287.2,208.1l-86.2,0.1v36.5h23.3v101h-24.8v34.9h108.2v-34.9h-20.5V208.1z"/>
	<path d="M249.6,183c24.5,0,39.3-18.1,39.3-38.3c-0.5-20.6-14.8-39.1-38.3-39.1c-23.4,0-38.8,18.5-38.8,39.1
		C211.8,164.9,226.7,183,249.6,183z"/>
</g>
</svg>
