<?xml version="1.0" encoding="utf-8"?>
<!-- Generator: Adobe Illustrator 21.0.0, SVG Export Plug-In . SVG Version: 6.00 Build 0)  -->
<svg version="1.1" id="Capa_1" xmlns="http://www.w3.org/2000/svg" xmlns:xlink="http://www.w3.org/1999/xlink" x="0px" y="0px"
	 viewBox="0 0 512 512" style="enable-background:new 0 0 512 512;" xml:space="preserve">
<g>
	<path d="M256,26.4C129.2,26.4,26.4,129.2,26.4,256c0,127.2,102.4,229.6,229.6,229.6c126.8,0,229.6-102.8,229.6-229.6
		C485.6,128.8,383.2,26.4,256,26.4z M248.1,106.1c23.2-1.3,42.2,18,40.6,41.1c-1.2,18.7-16.1,34-34.8,35.7
		c-24.1,2.2-44.3-18.1-41.9-42.2C213.8,121.9,229.3,107.1,248.1,106.1z M307.7,380.6H199.5v-34.9h24.8v-101H201l0-36.5l86.2-0.1
		l0,137.6h20.5V380.6z"/>
</g>
</svg>
