<?xml version="1.0" encoding="utf-8"?>
<!-- Generator: Adobe Illustrator 21.0.0, SVG Export Plug-In . SVG Version: 6.00 Build 0)  -->
<svg version="1.1" id="Capa_1" xmlns="http://www.w3.org/2000/svg" xmlns:xlink="http://www.w3.org/1999/xlink" x="0px" y="0px"
	 viewBox="0 0 512 512" style="enable-background:new 0 0 512 512;" xml:space="preserve">
<g>
	<path d="M256,132.2c-67.2,0-122.9,54.7-122.9,122.9S187.8,377.9,256,377.9S378.9,322.2,378.9,255S323.2,132.2,256,132.2z
		 M256,333.8c-43.2,0-78.7-35.5-78.7-78.7s35.5-78.7,78.7-78.7s78.7,35.5,78.7,78.7S299.2,333.8,256,333.8z"/>
	<circle cx="383.7" cy="129.3" r="27.8"/>
	<path d="M455.7,57.3c-25-25.9-60.5-39.4-100.8-39.4H157.1c-83.5,0-139.2,55.7-139.2,139.2v196.8c0,41.3,13.4,76.8,40.3,102.7
		c25.9,25,60.5,37.4,99.8,37.4h195.8c41.3,0,75.8-13.4,100.8-37.4c25.9-25,39.4-60.5,39.4-101.8V157.1
		C494.1,116.8,480.6,82.2,455.7,57.3z M451.8,354.9c0,29.8-10.6,53.8-27.8,70.1s-41.3,25-70.1,25H158.1c-28.8,0-52.8-8.6-70.1-25
		c-17.3-17.3-25.9-41.3-25.9-71V157.1c0-28.8,8.6-52.8,25.9-70.1c16.3-16.3,41.3-25,70.1-25h197.8c28.8,0,52.8,8.6,70.1,25.9
		c16.3,17.3,25.9,41.3,25.9,69.1V354.9L451.8,354.9z"/>
</g>
</svg>
