<?xml version="1.0" encoding="utf-8"?>
<!-- Generator: Adobe Illustrator 21.0.0, SVG Export Plug-In . SVG Version: 6.00 Build 0)  -->
<svg version="1.1" id="Capa_1" xmlns="http://www.w3.org/2000/svg" xmlns:xlink="http://www.w3.org/1999/xlink" x="0px" y="0px"
	 viewBox="0 0 512 512" style="enable-background:new 0 0 512 512;" xml:space="preserve">
<path d="M342.1,23.6c-80.9,0-146.3,65.4-146.3,146.3c0,17.2,3.4,34.4,8.6,51.6l-180.8,181v85.9l79.4-0.9l1.7-84.7l72.5,13.3
	l-3.9-79.9l66.2,21.5l51-50c15.5,5.2,32.7,8.6,51.6,8.6c81,0,146.5-65.6,146.3-146.7C488.2,88.8,422.9,23.6,342.1,23.6z
	 M345.1,218.5c-29.3,0-51.6-22.4-51.6-51.6c0-28.5,23.4-51.7,51.9-51.6c29.2,0.2,51.3,22.5,51.3,51.6
	C396.7,196.1,374.4,218.5,345.1,218.5z"/>
</svg>
