<?xml version="1.0" encoding="utf-8"?>
<!-- Generator: Adobe Illustrator 21.0.0, SVG Export Plug-In . SVG Version: 6.00 Build 0)  -->
<svg version="1.1" id="Capa_1" xmlns="http://www.w3.org/2000/svg" xmlns:xlink="http://www.w3.org/1999/xlink" x="0px" y="0px"
	 viewBox="0 0 512 512" style="enable-background:new 0 0 512 512;" xml:space="preserve">
<g>
	<path d="M291.9,377.8H220c-6.5,0-11.8,5.3-11.8,11.8v17.2c0,9.8,7.1,32.8,16.5,34.3h62.4c9.3-1.4,16.4-24.5,16.4-34.2v-17.2
		C303.6,383.1,298.4,377.9,291.9,377.8z"/>
	<path d="M255.2,71c-66.6,0.5-119.6,54.4-118.9,121c0.3,31.7,13,60.5,33.4,81.7c15.8,16.3,26.1,37.5,29.6,59.8
		c1.4,9.6,9.8,16.6,19.5,16.6h74.3c9.8,0,18.1-7.1,19.6-16.7c3.4-22.3,13.6-43.2,29.4-59.6c20.8-21.5,33.6-50.8,33.6-83.1
		C375.7,124.3,321.7,70.5,255.2,71z"/>
</g>
</svg>
