<?xml version="1.0" encoding="utf-8"?>
<!-- Generator: Adobe Illustrator 21.0.0, SVG Export Plug-In . SVG Version: 6.00 Build 0)  -->
<svg version="1.1" id="Capa_1" xmlns="http://www.w3.org/2000/svg" xmlns:xlink="http://www.w3.org/1999/xlink" x="0px" y="0px"
	 viewBox="0 0 512 512" style="enable-background:new 0 0 512 512;" xml:space="preserve">
<g>
	<path d="M292.9,435.2H221c-6.5,0-11.8,5.3-11.8,11.8v17.2c0,9.8,7.1,32.8,16.5,34.3h62.4c9.3-1.4,16.4-24.5,16.4-34.2v-17.2
		C304.6,440.5,299.4,435.3,292.9,435.2z"/>
	<path d="M256.2,128.4c-66.6,0.5-119.6,54.4-118.9,121c0.3,31.7,13,60.5,33.4,81.7c15.8,16.3,26.1,37.5,29.6,59.8
		c1.4,9.6,9.8,16.6,19.5,16.6h74.3c9.8,0,18.1-7.1,19.6-16.7c3.4-22.3,13.6-43.2,29.4-59.6c20.8-21.5,33.6-50.8,33.6-83.1
		C376.7,181.7,322.7,127.9,256.2,128.4z"/>
	<path d="M257,104.9c9.1,0,16.6-7.4,16.6-16.6V30.1c0-9.3-7.7-17-17.2-16.6c-9,0.4-16,8.1-16,17.1v57.7
		C240.4,97.5,247.9,104.9,257,104.9z"/>
	<path d="M111.6,258.3c0.6-9.6-7-17.6-16.6-17.6H36.8c-9.1,0-16.6,7.4-16.6,16.6c0,9.1,7.4,16.6,16.6,16.6h57.7
		C103.3,273.9,111.1,267.2,111.6,258.3z"/>
	<path d="M475.2,240.7h-58.2c-9.1,0-16.6,7.4-16.6,16.6c0,9.1,7.4,16.6,16.6,16.6h58.2c9.1,0,16.6-7.4,16.6-16.6
		C491.8,248.2,484.5,240.7,475.2,240.7z"/>
	<path d="M129.9,369L89,409.8c-4.9,4.9-6.6,12.4-3.8,18.8c2.8,6.6,9.1,10,15.1,10c4.2,0,8.5-1.6,11.7-4.8l41.2-41.2
		c6.5-6.5,6.5-17,0-23.5C146.9,362.5,136.3,362.5,129.9,369z"/>
	<path d="M376.4,149c4.2,0,8.5-1.6,11.7-4.8l40.8-40.8c6.5-6.5,6.9-17.1,0.5-23.7c-6.5-6.6-17.1-6.8-23.6-0.1l-41.2,41.2
		c-6.5,6.5-6.5,17,0,23.5C367.9,147.4,372.1,149,376.4,149z"/>
	<path d="M121.4,148.6c3.2,3.2,7.5,4.8,11.7,4.8c6,0,12.3-3.3,15.1-10c2.8-6.4,1.1-13.9-3.8-18.8c-9.5-9.5-30-30-40.5-40.5
		c-6.5-6.5-17.1-6.9-23.7-0.5c-6.6,6.5-6.8,17.1-0.1,23.6L121.4,148.6z"/>
	<path d="M389.6,366.1c-6.5-6.5-17.1-6.5-23.6,0.1c-6.4,6.5-6,17.2,0.5,23.7l40.8,40.8c3.2,3.2,7.5,4.8,11.7,4.8
		c4.2,0,8.5-1.6,11.7-4.8c6.5-6.5,6.5-17,0-23.5L389.6,366.1z"/>
</g>
</svg>
