<?xml version="1.0" encoding="utf-8"?>
<!-- Generator: Adobe Illustrator 21.0.0, SVG Export Plug-In . SVG Version: 6.00 Build 0)  -->
<svg version="1.1" id="Capa_1" xmlns="http://www.w3.org/2000/svg" xmlns:xlink="http://www.w3.org/1999/xlink" x="0px" y="0px"
	 viewBox="0 0 512 512" style="enable-background:new 0 0 512 512;" xml:space="preserve">
<path d="M424.1,184.1l-31.8,0.1V89.4c0-22.1-39.3-73.9-137.8-73.9c-88,0-137.7,51.8-137.7,73.9v95l-28.9,0.1c-11,0-20,9-20,20
	l0.2,272c0,11,9,20,20,20l335.7-0.4c11,0,20-8.9,20-20l0.3-272.1C444.1,193.1,435.2,184.1,424.1,184.1z M295.1,429.5h-74.8
	l11.7-69.6c-14.6-8.6-25-25-25-43.3c0-29.6,25.5-53.2,55.3-50.5c26.6,2.3,46.5,24.6,46.2,51.3c-0.3,18.4-10.1,33.8-25,42.5
	L295.1,429.5z M341.8,184.2l-173,0.2v-83c0-13.8,32.6-43,87.2-42.4c49.5,0.5,85.8,28.6,85.8,42.4V184.2z"/>
</svg>
