<?xml version="1.0" encoding="utf-8"?>
<!-- Generator: Adobe Illustrator 21.0.0, SVG Export Plug-In . SVG Version: 6.00 Build 0)  -->
<svg version="1.1" id="Capa_1" xmlns="http://www.w3.org/2000/svg" xmlns:xlink="http://www.w3.org/1999/xlink" x="0px" y="0px"
	 viewBox="0 0 512 512" style="enable-background:new 0 0 512 512;" xml:space="preserve">
<path d="M192.7,35.4C71.4,70.2,0.6,197.9,35.4,319.3s162.6,192.1,283.9,157.4s192.1-162.6,157.4-283.9S314.1,0.6,192.7,35.4z
	 M368.7,407.9L338,300.6l-125.9,36.1l31,108c-55.3-3.9-106.7-32.2-139.5-76.8l108.6-31.1l-36.1-125.9L67.4,241.9
	c4.2-55.3,32.8-106.5,77.6-139.1l31,108l125.9-36.1L271.1,67.5c54.5,4.5,104.9,32.6,137.4,76.7l-106.7,30.6L338,300.6l106.7-30.6
	C440.4,324.6,412.6,375.2,368.7,407.9z"/>
</svg>
