<?xml version="1.0" encoding="utf-8"?>
<!-- Generator: Adobe Illustrator 21.0.0, SVG Export Plug-In . SVG Version: 6.00 Build 0)  -->
<svg version="1.1" id="Capa_1" xmlns="http://www.w3.org/2000/svg" xmlns:xlink="http://www.w3.org/1999/xlink" x="0px" y="0px"
	 viewBox="0 0 512 512" style="enable-background:new 0 0 512 512;" xml:space="preserve">
<g>
	<path d="M334.8,34H89c-5,0-9,4-9,9v426c0,5,4,9,9,9h334c5,0,9-4,9-9V139L334.8,34z M399.9,445.8H113.4V66.3h196l-0.1,88.3
		c0.1,4.9,4.1,8.9,9,8.9l81.6-0.1V445.8z"/>
	<polygon points="186,198.4 150.4,198.4 228.9,302.6 134,405.1 203.3,405.1 255.8,338.2 308.3,405.1 377.5,405.1 282.6,302.6 
		361.1,198.4 325.5,198.4 255.8,273.7 	"/>
</g>
</svg>
