<?xml version="1.0" encoding="utf-8"?>
<!-- Generator: Adobe Illustrator 21.0.0, SVG Export Plug-In . SVG Version: 6.00 Build 0)  -->
<svg version="1.1" id="Capa_1" xmlns="http://www.w3.org/2000/svg" xmlns:xlink="http://www.w3.org/1999/xlink" x="0px" y="0px"
	 viewBox="0 0 512 512" style="enable-background:new 0 0 512 512;" xml:space="preserve">
<path d="M334.8,34H89c-5,0-9,4-9,9v426c0,5,4,9,9,9h334c5,0,9-4,9-9V139L334.8,34z M399.9,445.8H113.4V66.3h196l-0.1,88.3
	c0.1,4.9,4.1,8.9,9,8.9l81.6-0.1V445.8z"/>
<g>
	<path d="M192.2,377.8V230.2h-17.8v-24.6h75.4c20.7,0,36.2,1.5,46.4,4.4c10.3,2.9,18.9,9.6,25.8,19.9c6.9,10.3,10.4,22.5,10.4,36.6
		c0,11.2-2.3,21.3-6.9,30.2c-4.6,8.9-10.2,15.5-17,19.8c-6.8,4.2-13,8-22.8,10.6c-8.6,2.3-21.2,4.2-38.3,4.2H234V378h22.5v24.6h-82
		V378h17.7V377.8z M234.1,301.2h16c18.2,0,30.8-2.6,37.8-7.8c7.1-5.2,10.5-14.4,10.5-27.4c0-8.4-1.9-15.2-5.5-20.8
		c-3.8-5.5-8.4-9-13.8-10.5c-5.5-1.5-14.7-2.3-27.5-2.3h-17.4v68.8H234.1z"/>
</g>
</svg>
