<?xml version="1.0" encoding="utf-8"?>
<!-- Generator: Adobe Illustrator 21.0.0, SVG Export Plug-In . SVG Version: 6.00 Build 0)  -->
<svg version="1.1" id="Capa_1" xmlns="http://www.w3.org/2000/svg" xmlns:xlink="http://www.w3.org/1999/xlink" x="0px" y="0px"
	 viewBox="0 0 512 512" style="enable-background:new 0 0 512 512;" xml:space="preserve">
<path d="M334.8,34H89c-5,0-9,4-9,9v426c0,5,4,9,9,9h334c5,0,9-4,9-9V139L334.8,34z M399.9,445.8H113.4V66.3h196l-0.1,88.3
	c0.1,4.9,4.1,8.9,9,8.9l81.6-0.1V445.8z"/>
<g>
	<path d="M192.8,411.5l-41.1-142.8h-14.4v-20.1H199v20.2h-14.4l24.6,100.6l25.4-100.6h46l24.5,96.6l23.9-96.6h-13.3v-20.2h59.4v20.2
		h-14l-40.3,142.8h-33.1L256.4,305l-30.1,106.6h-33.5L192.8,411.5L192.8,411.5z"/>
</g>
</svg>
