<?xml version="1.0" encoding="utf-8"?>
<!-- Generator: Adobe Illustrator 21.0.0, SVG Export Plug-In . SVG Version: 6.00 Build 0)  -->
<svg version="1.1" id="Capa_1" xmlns="http://www.w3.org/2000/svg" xmlns:xlink="http://www.w3.org/1999/xlink" x="0px" y="0px"
	 viewBox="0 0 512 512" style="enable-background:new 0 0 512 512;" xml:space="preserve">
<path d="M334.8,34H89c-5,0-9,4-9,9v426c0,5,4,9,9,9h334c5,0,9-4,9-9V139L334.8,34z M399.9,445.8H113.4V66.3h196l-0.1,88.3
	c0.1,4.9,4.1,8.9,9,8.9l81.6-0.1V445.8z"/>
<g>
	<path d="M190.9,404.9l-42.3-147.1h-12.8v-20.7h58.4V258h-11.7l25.3,103.4L238,258h39.4l29.2,99.3l24.6-99.3h-10.6v-20.8h56V258
		h-12.4L322.7,405h-34.1l-32.2-109.8l-31,109.8h-34.5L190.9,404.9L190.9,404.9z"/>
</g>
</svg>
