<?xml version="1.0" encoding="utf-8"?>
<!-- Generator: Adobe Illustrator 21.0.0, SVG Export Plug-In . SVG Version: 6.00 Build 0)  -->
<svg version="1.1" id="Capa_1" xmlns="http://www.w3.org/2000/svg" xmlns:xlink="http://www.w3.org/1999/xlink" x="0px" y="0px"
	 viewBox="0 0 512 512" style="enable-background:new 0 0 512 512;" xml:space="preserve">
<g>
	<path d="M392,95.3V53H13v342.5c0,35.1,27.5,63.5,61.4,63.5l354.4-1.4c34.5,0,70.2-23.9,70.2-61.3V95.2L392,95.3z M82.2,424.9
		c-19.8,0-35.7-16.6-35.7-36.9L46.3,84.1h305.2l0.2,296.3c-0.9,29.8,9.7,44.7,9.7,44.7L82.2,424.9z M464.2,386.5
		c0,21.4-11.1,38-33.4,38s-39.6-11.9-40.5-38.7l0.4-255.4l73.9-0.2L464.2,386.5z"/>
	<rect x="79" y="229.1" width="101.7" height="135.2"/>
	<rect x="78.4" y="132.3" width="240.5" height="41.7"/>
	<rect x="212.3" y="229" width="106.5" height="41.7"/>
	<rect x="212.3" y="321" width="106.5" height="41.7"/>
</g>
</svg>
