<?xml version="1.0" encoding="utf-8"?>
<!-- Generator: Adobe Illustrator 21.0.0, SVG Export Plug-In . SVG Version: 6.00 Build 0)  -->
<svg version="1.1" id="Capa_1" xmlns="http://www.w3.org/2000/svg" xmlns:xlink="http://www.w3.org/1999/xlink" x="0px" y="0px"
	 viewBox="0 0 512 512" style="enable-background:new 0 0 512 512;" xml:space="preserve">
<g>
	<polygon points="28.9,394.7 95,394.7 95,411.3 62,411.3 62,444.3 95,444.3 95,460.9 28.9,460.9 28.9,493.9 128.1,493.9 
		128.1,361.7 28.9,361.7 	"/>
	<polygon points="61.9,150.3 94.9,150.3 94.9,18.1 28.9,18.1 28.9,51.1 61.9,51.1 	"/>
	<polygon points="28.9,220.1 88.4,220.1 29,290 29,319.3 128.2,319.3 128.2,286.3 69.2,286.3 128.2,216.8 128.2,187.1 28.9,187.1 	
		"/>
	<rect x="178.3" y="225.9" width="304.8" height="60.3"/>
	<rect x="177.3" y="50" width="304.8" height="58.3"/>
	<rect x="177.3" y="403.7" width="304.8" height="58.3"/>
</g>
</svg>
