<?xml version="1.0" encoding="utf-8"?>
<!-- Generator: Adobe Illustrator 21.0.0, SVG Export Plug-In . SVG Version: 6.00 Build 0)  -->
<svg version="1.1" id="Capa_1" xmlns="http://www.w3.org/2000/svg" xmlns:xlink="http://www.w3.org/1999/xlink" x="0px" y="0px"
	 viewBox="0 0 512 512" style="enable-background:new 0 0 512 512;" xml:space="preserve">
<path d="M334.8,34H89c-5,0-9,4-9,9v426c0,5,4,9,9,9h334c5,0,9-4,9-9V139L334.8,34z M399.9,445.8H113.4V66.3h196l-0.1,88.3
	c0.1,4.9,4.1,8.9,9,8.9l81.6-0.1V445.8z"/>
<g>
	<path d="M368.8,320.8c-11.2-8.1-54.8-8-68.5-6.1c-21.8-16.9-39.3-36.1-46.2-55.1c6.9-27.6,7.1-49.4,5.2-63.8
		c-1.9-12.6-8.3-22.1-16.3-22.1c-7,0-14.2,3.5-17.8,13.7c-4.6,16.8-2.8,42,5.7,74.6c0,0-9.6,28.4-42.8,83.1c0,0-43.7,18.4-52.8,50.1
		c-1.8,14.3,12,15.7,17.2,15c14.5-2,33.1-10.4,56.5-51.2c27-8.8,56.7-20.2,83.6-24.3c20.6,11.6,48.7,19.4,68.8,15.1
		C380.4,343.5,380.8,330.7,368.8,320.8z M149.3,399.1c10.7-22.5,23.4-30.9,33.6-36.6C174.6,381.6,166.7,388.5,149.3,399.1z
		 M241.8,186c4-2.5,10,27.6,2,47.7C236.6,222.3,237.8,188.5,241.8,186z M214.2,337.9c3.3-5.9,24-47.3,28-57.6
		c7.9,14.5,32.5,39.1,34.1,40.3C252.7,325.2,232.2,330.9,214.2,337.9z M363.4,336.5c-7.4,3.3-27.4-2.5-42.3-8.9
		c5.7-0.4,22.7-1.3,31.2,0.2C361.7,329.5,367.7,333.9,363.4,336.5z"/>
</g>
</svg>
