<?xml version="1.0" encoding="utf-8"?>
<!-- Generator: Adobe Illustrator 21.0.0, SVG Export Plug-In . SVG Version: 6.00 Build 0)  -->
<svg version="1.1" id="Capa_1" xmlns="http://www.w3.org/2000/svg" xmlns:xlink="http://www.w3.org/1999/xlink" x="0px" y="0px"
	 viewBox="0 0 512 512" style="enable-background:new 0 0 512 512;" xml:space="preserve">
<path d="M134.2,440.3l27.2-28.2l-58.7-59.4l-27.2,28.2l-0.8,61.3L134.2,440.3L134.2,440.3z M285.8,106.3l114.4,113.8L150,480
	l-116.3,8.5l3.5-124.1L285.8,106.3z M478.4,122.6c0,11-3.7,20.3-11.1,27.9l-40.4,42l-114.2-114l41.8-43.2
	c7.2-7.9,16.2-11.8,26.9-11.8c10.6,0,19.6,3.9,27.2,11.8l58.7,59.1C474.6,102.4,478.4,111.9,478.4,122.6z"/>
</svg>
