<?xml version="1.0" encoding="utf-8"?>
<!-- Generator: Adobe Illustrator 21.0.0, SVG Export Plug-In . SVG Version: 6.00 Build 0)  -->
<svg version="1.1" id="Capa_1" xmlns="http://www.w3.org/2000/svg" xmlns:xlink="http://www.w3.org/1999/xlink" x="0px" y="0px"
	 viewBox="0 0 512 512" style="enable-background:new 0 0 512 512;" xml:space="preserve">
<g>
	<g>
		<path d="M399.8,103.4l0.5-80.5H112.7l-0.5,80.5H399.8z"/>
		<path d="M457.4,139.5H54.7c-15.9,0-28.8,13.1-28.8,29.1v145.7c0,16.1,12.9,29.1,28.8,29.1h57.5V460c0,16.1,12.9,29.1,28.8,29.1
			h230.1c15.9,0,28.8-13,28.8-29.1V343.4h57.5c15.9,0,28.8-13,28.8-29.1V168.6C486.1,152.5,473.1,139.5,457.4,139.5z M371.1,460H141
			V256h230.1V460z M87.6,228.9c-15.9,0-28.8-13-28.8-29.1s12.9-29.1,28.8-29.1s28.8,13.1,28.8,29.1S103.5,228.9,87.6,228.9z"/>
		<rect x="169.7" y="314.3" width="118.2" height="40.1"/>
		<rect x="169.7" y="388.9" width="168.2" height="42"/>
	</g>
</g>
</svg>
