<?xml version="1.0" encoding="utf-8"?>
<!-- Generator: Adobe Illustrator 21.0.0, SVG Export Plug-In . SVG Version: 6.00 Build 0)  -->
<svg version="1.1" id="Capa_1" xmlns="http://www.w3.org/2000/svg" xmlns:xlink="http://www.w3.org/1999/xlink" x="0px" y="0px"
	 viewBox="0 0 512 512" style="enable-background:new 0 0 512 512;" xml:space="preserve">
<path d="M256,26C129,26,26,129,26,256s103,230,230,230s230-103,230-230S383,26,256,26z M297.9,417.8h-64.8v-65.9h64.8V417.8z
	 M363.3,200.9c0,0.1,0,0.2,0,0.4c-7.7,55.6-51.8,73-67.9,103h-62.6c12.6-45.4,76.2-69.7,75.4-108c1.3-30.2-24.7-50.4-55.2-50.4
	c-29,0-52.9,22.7-55,51.1h-55.4C144.7,138,193.3,90.8,253,90.8C314,90.8,367.4,133.2,363.3,200.9z"/>
</svg>
