<?xml version="1.0" encoding="utf-8"?>
<!-- Generator: Adobe Illustrator 21.0.0, SVG Export Plug-In . SVG Version: 6.00 Build 0)  -->
<svg version="1.1" id="Capa_1" xmlns="http://www.w3.org/2000/svg" xmlns:xlink="http://www.w3.org/1999/xlink" x="0px" y="0px"
	 viewBox="0 0 512 512" style="enable-background:new 0 0 512 512;" xml:space="preserve">
<g>
	<path d="M256,26C129,26,26,129,26,256s103,230,230,230s230-103,230-230S383,26,256,26z M256,440c-101.4,0-184-82.6-184-184
		S154.6,72,256,72s184,82.6,184,184S357.4,440,256,440z"/>
	<rect x="236.4" y="333.6" width="54" height="54.9"/>
	<path d="M253,116c-49.7,0-90.2,39.3-92,88.6h46.1c1.8-23.7,21.6-42.6,45.8-42.6c25.4,0,47.1,16.8,46,42c0.6,31.9-52.3,52.2-62.9,90
		h52.2c13.5-25,50.2-39.5,56.6-85.9c0-0.1,0-0.2,0-0.3C348.3,151.4,303.8,116,253,116z"/>
</g>
</svg>
