<?xml version="1.0" encoding="utf-8"?>
<!-- Generator: Adobe Illustrator 21.0.0, SVG Export Plug-In . SVG Version: 6.00 Build 0)  -->
<svg version="1.1" id="Capa_1" xmlns="http://www.w3.org/2000/svg" xmlns:xlink="http://www.w3.org/1999/xlink" x="0px" y="0px"
	 viewBox="0 0 512 512" style="enable-background:new 0 0 512 512;" xml:space="preserve">
<g>
	<path d="M181.2,87H51.8c-11,0-20,9-20,20v129.1c0,11,9,20,20,20h77.9C132,304.6,96.2,359.6,36,368.2V425
		c91.5-2.3,165.2-79.7,165.2-177V107C201.2,96,192.2,87,181.2,87z"/>
	<path d="M460.2,87H330.8c-11,0-20,9-20,20v129.1c0,11,9,20,20,20h77.9c2.3,48.5-33.5,103.5-93.7,112.1V425
		c91.5-2.3,165.2-79.7,165.2-177V107C480.2,96,471.2,87,460.2,87z"/>
</g>
</svg>
