<?xml version="1.0" encoding="utf-8"?>
<!-- Generator: Adobe Illustrator 21.0.0, SVG Export Plug-In . SVG Version: 6.00 Build 0)  -->
<svg version="1.1" id="Capa_1" xmlns="http://www.w3.org/2000/svg" xmlns:xlink="http://www.w3.org/1999/xlink" x="0px" y="0px"
	 viewBox="0 0 512 512" style="enable-background:new 0 0 512 512;" xml:space="preserve">
<g>
	<path d="M330.8,425h129.4c11,0,20-9,20-20V275.9c0-11-9-20-20-20h-77.9c-2.3-48.5,33.5-103.5,93.7-112.1V87
		c-91.5,2.3-165.2,79.7-165.2,177v141C310.8,416,319.8,425,330.8,425z"/>
	<path d="M51.8,425h129.4c11,0,20-9,20-20V275.9c0-11-9-20-20-20h-77.9c-2.3-48.5,33.5-103.5,93.7-112.1V87
		c-91.5,2.3-165.2,79.7-165.2,177v141C31.8,416,40.8,425,51.8,425z"/>
</g>
</svg>
