<?xml version="1.0" encoding="utf-8"?>
<!-- Generator: Adobe Illustrator 21.0.0, SVG Export Plug-In . SVG Version: 6.00 Build 0)  -->
<svg version="1.1" id="Capa_1" xmlns="http://www.w3.org/2000/svg" xmlns:xlink="http://www.w3.org/1999/xlink" x="0px" y="0px"
	 viewBox="0 0 512 512" style="enable-background:new 0 0 512 512;" xml:space="preserve">
<g>
	<path d="M240.9,101.3c-73.1,0-134.8,51.1-151.1,119.4H37.6C54.8,124.2,139.7,50.2,241,50.2c69.2,0,130.7,34.4,168.2,87l67-43.2
		v194.8l-193.5-70l83.4-53.9C337.8,126.4,292.1,101.3,240.9,101.3z"/>
	<path d="M87.4,279.8c4.4,29.5,17.2,56.4,35.9,78.1l-39.7,32.2c-25.9-30.5-43.1-68.6-47.8-110.3H87.4z"/>
	<path d="M216.1,410.1v51.7c-34.2-4.2-65.8-16.7-92.8-35.6l41.9-34C180.8,401,197.9,407.1,216.1,410.1z"/>
</g>
</svg>
