<?xml version="1.0" encoding="utf-8"?>
<!-- Generator: Adobe Illustrator 21.0.0, SVG Export Plug-In . SVG Version: 6.00 Build 0)  -->
<svg version="1.1" id="Capa_1" xmlns="http://www.w3.org/2000/svg" xmlns:xlink="http://www.w3.org/1999/xlink" x="0px" y="0px"
	 viewBox="0 0 512 512" style="enable-background:new 0 0 512 512;" xml:space="preserve">
<g>
	<path d="M418.1,314.1c-23.8,64.3-85.8,110.5-158.1,110.5c-60.8,0-114.3-32.6-144-81.3l62-33.2L47.1,272L10.4,399.7l62.9-33.6
		c37.9,63.7,107.4,106.8,186.6,106.8c94.1,0,174.7-60.8,204.5-145L418.1,314.1z"/>
	<path d="M441.9,136.8C402.9,78.1,336.2,39.1,261,39.1c-94.2,0-174.9,60.9-204.6,145.3l46.3,13.9c23.7-64.6,85.8-111,158.3-111
		c57,0,107.5,28.7,138.1,72.3L334,194.4l130.9,38.1l36.7-127.6L441.9,136.8z"/>
</g>
</svg>
