<?xml version="1.0" encoding="utf-8"?>
<!-- Generator: Adobe Illustrator 21.0.0, SVG Export Plug-In . SVG Version: 6.00 Build 0)  -->
<svg version="1.1" id="Capa_1" xmlns="http://www.w3.org/2000/svg" xmlns:xlink="http://www.w3.org/1999/xlink" x="0px" y="0px"
	 viewBox="0 0 512 512" style="enable-background:new 0 0 512 512;" xml:space="preserve">
<path d="M390.3,442.5h47.5l0.1-263c0-6.9-2.8-13.5-7.9-18.2c-24.2-22.8-96.3-90.4-98.7-90.4l-0.2,123.8c0,10.5-8.5,19-19,19H136.3
	c-10.4,0-18.9-8.4-19-18.8l-1-123.9H69.8v371.5h47.5l0.2-115.9c0-10.5,8.5-19,19-19h234.7c10.5,0,19,8.5,19,19L390.3,442.5z
	 M276,73.8h-43.5c-7.2,0-13,5.8-13,13v81.6c0,7.2,5.8,13,13,13H276c7.2,0,13-5.8,13-13V86.8C289,79.6,283.1,73.8,276,73.8z
	 M460.3,483.3H51.8c-13.8,0-25-11.2-25-25V53.8c0-13.8,11.2-25,25-25H347c5.8,0,11.3,2.2,15.6,6.1l115.2,105.9
	c4.7,4.4,7.4,10.5,7.4,16.9v300.6C485.3,472.1,474.1,483.3,460.3,483.3z"/>
</svg>
