<?xml version="1.0" encoding="utf-8"?>
<!-- Generator: Adobe Illustrator 21.0.0, SVG Export Plug-In . SVG Version: 6.00 Build 0)  -->
<svg version="1.1" id="Capa_1" xmlns="http://www.w3.org/2000/svg" xmlns:xlink="http://www.w3.org/1999/xlink" x="0px" y="0px"
	 viewBox="0 0 512 512" style="enable-background:new 0 0 512 512;" xml:space="preserve">
<g>
	<path d="M253.6,155c-31.6,0-62,2.8-90.7,7.9c-5.1,28.6-7.9,59.1-7.9,90.7c0,33.4,3.1,65.6,8.8,95.7c28.4,5,58.5,7.7,89.7,7.7
		c33.1,0,65-3,94.8-8.6c5.6-29.8,8.6-61.7,8.6-94.8c0.1-31.3-2.6-61.4-7.6-89.8C319.2,158.1,287.1,155,253.6,155z"/>
	<path d="M256,22.7c-128.3,0-233.3,105-233.3,233.3s105,233.3,233.3,233.3s233.3-105,233.3-233.3S384.3,22.7,256,22.7z M386.2,386.2
		c-6.8,24.9-15.5,48-25.7,68.6c-18.4,9.7-38.2,17-59.1,21.3c14.1-22.7,26-49.5,35.2-79.3c-25.7,4-52.6,6.2-80.5,6.2
		c-27.9,0-54.8-2.2-80.5-6.2c9.2,29.8,21.1,56.6,35.2,79.3c-20.9-4.3-40.7-11.6-59.1-21.3c-10.2-20.6-19-43.6-25.8-68.6
		c-24.9-6.8-48-15.5-68.6-25.8C48,343,41,324.3,36.7,304.7c22.8,13.4,49.3,24.7,78.7,33.3c-4.1-26.1-6.4-53.6-6.4-82
		c0-28.4,2.2-55.9,6.4-82c-29.4,8.7-55.9,19.9-78.7,33.3c4.4-19.7,11.4-38.4,20.6-55.8c20.6-10.2,43.6-19,68.6-25.8
		c6.8-24.9,15.5-48,25.8-68.6C169,48,187.7,41,207.3,36.7C193.9,59.5,182.7,86,174,115.4c26.1-4.1,53.6-6.4,82-6.4
		c28.4,0,55.9,2.2,82,6.4c-8.7-29.4-19.9-55.9-33.3-78.7c19.7,4.4,38.4,11.4,55.8,20.6c10.2,20.6,18.9,43.6,25.7,68.6
		c24.9,6.8,48,15.5,68.6,25.7c9.7,18.4,17,38.2,21.3,59.1c-22.7-14.1-49.5-26-79.3-35.2c4,25.6,6.2,52.6,6.2,80.5
		c0,27.9-2.2,54.8-6.2,80.5c29.8-9.2,56.6-21.2,79.3-35.2c-4.3,20.9-11.6,40.8-21.3,59.2C434.2,370.7,411.1,379.4,386.2,386.2z"/>
</g>
</svg>
