<?xml version="1.0" encoding="utf-8"?>
<!-- Generator: Adobe Illustrator 21.0.0, SVG Export Plug-In . SVG Version: 6.00 Build 0)  -->
<svg version="1.1" id="Capa_1" xmlns="http://www.w3.org/2000/svg" xmlns:xlink="http://www.w3.org/1999/xlink" x="0px" y="0px"
	 viewBox="0 0 512 512" style="enable-background:new 0 0 512 512;" xml:space="preserve">
<g>
	<path d="M253.6,157c-31,0-60.8,2.7-88.9,7.7c-5,28-7.7,57.9-7.7,88.9c0,32.7,3,64.3,8.6,93.8c27.8,4.9,57.3,7.5,87.9,7.5
		c32.4,0,63.7-2.9,92.9-8.4c5.5-29.2,8.4-60.5,8.4-92.9c0.1-30.7-2.5-60.2-7.4-88C317.9,160.1,286.5,157,253.6,157z"/>
	<path d="M256,27.4C130.3,27.4,27.4,130.3,27.4,256S130.3,484.6,256,484.6S484.6,381.7,484.6,256S381.7,27.4,256,27.4z M383.6,383.6
		c-6.7,24.4-15.2,47-25.2,67.2c-18,9.5-37.4,16.7-57.9,20.9c13.8-22.2,25.5-48.5,34.5-77.7c-25.2,3.9-51.5,6.1-78.9,6.1
		c-27.3,0-53.7-2.2-78.9-6.1c9,29.2,20.7,55.5,34.5,77.7c-20.5-4.2-39.9-11.4-57.9-20.9c-10-20.2-18.6-42.7-25.3-67.2
		c-24.4-6.7-47-15.2-67.2-25.3c-9.1-17.1-16-35.4-20.2-54.6c22.3,13.1,48.3,24.2,77.1,32.6c-4-25.6-6.3-52.5-6.3-80.4
		s2.2-54.8,6.3-80.4c-28.8,8.5-54.8,19.5-77.1,32.6c4.3-19.3,11.2-37.6,20.2-54.7c20.2-10,42.7-18.6,67.2-25.3
		c6.7-24.4,15.2-47,25.3-67.2c17-8.9,35.3-15.8,54.5-20c-13.1,22.3-24.1,48.3-32.6,77.1c25.6-4,52.5-6.3,80.4-6.3s54.8,2.2,80.4,6.3
		c-8.5-28.8-19.5-54.8-32.6-77.1c19.3,4.3,37.6,11.2,54.7,20.2c10,20.2,18.5,42.7,25.2,67.2c24.4,6.7,47,15.2,67.2,25.2
		c9.5,18,16.7,37.4,20.9,57.9c-22.2-13.8-48.5-25.5-77.7-34.5c3.9,25.1,6.1,51.5,6.1,78.9s-2.2,53.7-6.1,78.9
		c29.2-9,55.5-20.8,77.7-34.5c-4.2,20.5-11.4,40-20.9,58C430.6,368.4,408,376.9,383.6,383.6z"/>
</g>
</svg>
