<?xml version="1.0" encoding="utf-8"?>
<!-- Generator: Adobe Illustrator 21.0.0, SVG Export Plug-In . SVG Version: 6.00 Build 0)  -->
<svg version="1.1" id="Capa_1" xmlns="http://www.w3.org/2000/svg" xmlns:xlink="http://www.w3.org/1999/xlink" x="0px" y="0px"
	 viewBox="0 0 512 512" style="enable-background:new 0 0 512 512;" xml:space="preserve">
<g>
	<path d="M333.6,63.6c-8.7-32.4-42.1-51.7-74.5-43c-32.5,8.7-51.7,42-43,74.4c8.7,32.4,42.1,51.7,74.5,43
		C323,129.3,342.3,96,333.6,63.6z"/>
	<path d="M339.1,388.8c-20.4,17.5-22.7,48.2-5.1,68.6c17.5,20.4,48.3,22.7,68.7,5.1c20.4-17.5,22.7-48.2,5.1-68.6
		C390.2,373.6,359.4,371.3,339.1,388.8z"/>
	<path d="M493.5,298c-0.9-25.2-22.1-44.8-47.3-43.9c-25.2,0.9-44.9,22.1-43.9,47.3c0.9,25.2,22.1,44.8,47.3,43.9
		C474.8,344.4,494.4,323.2,493.5,298z"/>
	<path d="M392.1,191.6c18.9,14,45.6,9.9,59.6-9c14-18.9,10-45.5-9-59.5c-18.9-14-45.6-9.9-59.6,9C369.1,151,373.1,177.7,392.1,191.6
		z"/>
	<path d="M47.7,271.3c-26.7,14.1-37,47.2-22.8,73.9C39,372,72.1,382.2,98.9,368c26.8-14.1,37-47.2,22.8-73.9
		C107.6,267.4,74.4,257.2,47.7,271.3z"/>
	<path d="M201.7,391.1c-28.1-5.3-55.1,13.1-60.5,41.2c-5.3,28,13.1,55.1,41.2,60.4c28.1,5.3,55.1-13.1,60.5-41.2
		C248.3,423.4,229.8,396.4,201.7,391.1z"/>
	<path d="M83.5,201.8c29.3,12.8,63.4-0.6,76.1-29.8s-0.6-63.3-29.9-76c-29.3-12.8-63.4,0.6-76.1,29.8C40.8,155,54.2,189,83.5,201.8z
		"/>
</g>
</svg>
