<?xml version="1.0" encoding="utf-8"?>
<!-- Generator: Adobe Illustrator 21.0.0, SVG Export Plug-In . SVG Version: 6.00 Build 0)  -->
<svg version="1.1" id="Capa_1" xmlns="http://www.w3.org/2000/svg" xmlns:xlink="http://www.w3.org/1999/xlink" x="0px" y="0px"
	 viewBox="0 0 512 512" style="enable-background:new 0 0 512 512;" xml:space="preserve">
<g>
	<path class="st0" d="M256.5,18.5c13.7,0,23.5,9.5,23.5,22.8v89.3c0,13.3-9.8,23.8-23.5,23.8c-13.7,0-24.5-10.5-24.5-23.8V41.3
		C232,28,242.8,18.5,256.5,18.5z"/>
	<path class="st0" d="M256.5,357.6c13.7,0,23.5,10.5,23.5,23.8v88.4c0,13.3-9.8,23.8-23.5,23.8c-13.7,0-24.5-10.5-24.5-23.8v-88.4
		C232,368.1,242.8,357.6,256.5,357.6z"/>
</g>
<g>
	<path class="st0" d="M18.5,255.5c0-13.7,9.5-23.5,22.8-23.5h89.3c13.3,0,23.8,9.8,23.8,23.5c0,13.7-10.5,24.5-23.8,24.5H41.3
		C28,280,18.5,269.2,18.5,255.5z"/>
	<path class="st0" d="M357.6,255.5c0-13.7,10.5-23.5,23.8-23.5h88.4c13.3,0,23.8,9.8,23.8,23.5c0,13.7-10.5,24.5-23.8,24.5h-88.4
		C368.1,280,357.6,269.2,357.6,255.5z"/>
</g>
<g>
	<path class="st0" d="M87.7,423.6c-9.7-9.7-9.9-23.3-0.5-32.7l63.1-63.1c9.4-9.4,23.7-9.9,33.4-0.2c9.7,9.7,9.9,24.7,0.5,34.1
		l-63.1,63.1C111.7,434.2,97.4,433.3,87.7,423.6z"/>
	<path class="st0" d="M327.5,183.8c-9.7-9.7-9.2-24,0.2-33.4l62.5-62.5c9.4-9.4,23.7-9.9,33.4-0.2c9.7,9.7,9.9,24.7,0.5,34.1
		l-62.5,62.5C352.2,193.7,337.2,193.5,327.5,183.8z"/>
</g>
<g>
	<path class="st0" d="M423.6,424.3c-9.7,9.7-23.3,9.9-32.7,0.5l-63.1-63.1c-9.4-9.4-9.9-23.7-0.2-33.4c9.7-9.7,24.7-9.9,34.1-0.5
		l63.1,63.1C434.2,400.3,433.3,414.6,423.6,424.3z"/>
	<path class="st0" d="M183.8,184.5c-9.7,9.7-24,9.2-33.4-0.2l-62.5-62.5c-9.4-9.4-9.9-23.7-0.2-33.4s24.7-9.9,34.1-0.5l62.5,62.5
		C193.7,159.8,193.5,174.8,183.8,184.5z"/>
</g>
</svg>
