<?xml version="1.0" encoding="utf-8"?>
<!-- Generator: Adobe Illustrator 21.0.0, SVG Export Plug-In . SVG Version: 6.00 Build 0)  -->
<svg version="1.1" id="Capa_1" xmlns="http://www.w3.org/2000/svg" xmlns:xlink="http://www.w3.org/1999/xlink" x="0px" y="0px"
	 viewBox="0 0 512 512" style="enable-background:new 0 0 512 512;" xml:space="preserve">
<g>
	<g id="keyboard-control">
		<path d="M196.6,433.6c0,32.6,26.7,59.4,59.4,59.4s59.4-26.8,59.4-59.4s-26.8-59.4-59.4-59.4S196.6,400.9,196.6,433.6z M196.6,78.4
			c0,32.6,26.7,59.4,59.4,59.4s59.4-26.8,59.4-59.4S288.7,19,256,19S196.6,45.8,196.6,78.4z M196.6,254.9
			c0,32.7,26.7,59.4,59.4,59.4s59.4-26.7,59.4-59.4s-26.7-59.4-59.4-59.4S196.6,222.2,196.6,254.9z"/>
	</g>
</g>
</svg>
