<?xml version="1.0" encoding="utf-8"?>
<!-- Generator: Adobe Illustrator 21.0.0, SVG Export Plug-In . SVG Version: 6.00 Build 0)  -->
<svg version="1.1" id="Capa_1" xmlns="http://www.w3.org/2000/svg" xmlns:xlink="http://www.w3.org/1999/xlink" x="0px" y="0px"
	 viewBox="0 0 512 512" style="enable-background:new 0 0 512 512;" xml:space="preserve">
<g>
	<g id="keyboard-control">
		<path d="M78.4,196.6C45.8,196.6,19,223.3,19,256s26.8,59.4,59.4,59.4s59.4-26.8,59.4-59.4S111.1,196.6,78.4,196.6z M433.6,196.6
			c-32.6,0-59.4,26.7-59.4,59.4s26.8,59.4,59.4,59.4S493,288.7,493,256S466.2,196.6,433.6,196.6z M257.1,196.6
			c-32.7,0-59.4,26.7-59.4,59.4s26.7,59.4,59.4,59.4s59.4-26.7,59.4-59.4S289.8,196.6,257.1,196.6z"/>
	</g>
</g>
</svg>
