<?xml version="1.0" encoding="utf-8"?>
<!-- Generator: Adobe Illustrator 21.0.0, SVG Export Plug-In . SVG Version: 6.00 Build 0)  -->
<svg version="1.1" id="Capa_1" xmlns="http://www.w3.org/2000/svg" xmlns:xlink="http://www.w3.org/1999/xlink" x="0px" y="0px"
	 viewBox="0 0 512 512" style="enable-background:new 0 0 512 512;" xml:space="preserve">
<path d="M466,170.7c5-26.5-4.7-49.5-15.4-60.2c1.7-21.3-3-38.6-14-51.7c-12.1-14.5-30.9-22.3-56.2-22.3
	c-52.3-0.1-104.3,10.1-112.6,12.7c-8.3,2.6-88.8,25.9-92.4,29.4c0.3,15.5-0.4,174.5-0.3,208.1c3.4,3.5,85.3,85.2,91.6,91.5
	c3.5,3.4,6.4,8,8.9,13.7c2.4,5.7,5.4,15.1,7.1,23.1c1.3,7.4,3.9,19,5.3,25.4c5.1,15.5,11.5,25.3,15.3,29.1c3.6,3.6,7.9,4.8,12.8,5.4
	c19.4,2.2,36.2-7.4,40.7-10.4c11-7,16.9-20.6,18.3-24.4c5.4-14,5.6-46.7,2.3-60c-6-23-20.7-48.7-21.5-51.4H435
	c14.8,0,27.7-5.4,38.5-16.3c20.4-23.5,11.1-69.1,0.6-81.1C482.1,209.2,477.1,184.9,466,170.7z"/>
<path d="M143.4,286.3V78.5h-105c-6.6,0-12,5.4-12,12v183.8c0,6.6,5.4,12,12,12H143.4z M106,128c0,15.2-12.3,27.6-27.6,27.6
	S50.8,143.2,50.8,128s12.4-27.6,27.6-27.6S106,112.8,106,128z"/>
</svg>
