<?xml version="1.0" encoding="utf-8"?>
<!-- Generator: Adobe Illustrator 21.0.0, SVG Export Plug-In . SVG Version: 6.00 Build 0)  -->
<svg version="1.1" id="Capa_1" xmlns="http://www.w3.org/2000/svg" xmlns:xlink="http://www.w3.org/1999/xlink" x="0px" y="0px"
	 viewBox="0 0 512 512" style="enable-background:new 0 0 512 512;" xml:space="preserve">
<path d="M455,284c14.5-14.7,19.5-68.4-1.8-90.1c-12.6-12.8-28.3-20-53.8-19.7h-44.3c26.1-56.3,10.1-111.9-21.3-128.9
	c-26.5-14.4-56.8-11-68,0.3c-7.5,7.6-15.6,20.7-19,32.2c-3.4,11.6-13.4,51.3-17.7,55.7c-8.8,9.3-59.1,70.1-65.5,74.3H56.4
	c-6.6,0-12,5.4-12,12v211.4c0,6.6,5.4,12,12,12h111c3.9,0,78.6,25.1,95.7,27.8c80.1,12.6,128.1,0.9,146-15.4
	c15.4-14.1,23-33.3,22.8-57.7c18.3-21.7,18.3-44.7,15.3-58C463.9,317.2,458.9,291.2,455,284z M98.1,414.9c-15,0-27-12.1-27-27
	s12.1-27,27-27s27,12.1,27,27S113,414.9,98.1,414.9z M413.7,275.1c7.9,7.2,12.9,41.2-4.8,58.3c8.4,12.2,0.4,47.5-12.6,51.2
	c16.4,54.4-82.7,58.6-82.7,58.6c-44.6,1.6-136.8-33.6-139.1-33.6l0.4-167.8c2.9,0,67.4-69.3,78.5-84.4
	c15.8-21.3,29.7-79.5,34.4-84.1c17.2,0,28.3,4.3,34.4,12.3c19.7,26.1,4.3,62.5-4.3,80.2c-8.6,17.8-12.9,31.7-12.9,41.9h94.5
	C430.9,207.9,433.2,261.2,413.7,275.1z"/>
</svg>
