<?xml version="1.0" encoding="utf-8"?>
<!-- Generator: Adobe Illustrator 21.0.0, SVG Export Plug-In . SVG Version: 6.00 Build 0)  -->
<svg version="1.1" id="Capa_1" xmlns="http://www.w3.org/2000/svg" xmlns:xlink="http://www.w3.org/1999/xlink" x="0px" y="0px"
	 viewBox="0 0 512 512" style="enable-background:new 0 0 512 512;" xml:space="preserve">
<path d="M447.2,172.1c3-13.3,3-36.3-15.3-58c0.2-24.3-7.4-43.6-22.8-57.7c-17.9-16.3-65.9-27.9-146-15.4
	c-17.1,2.7-91.8,27.8-95.7,27.8h-111c-6.6,0-12,5.4-12,12v211.4c0,6.6,5.4,12,12,12h107.2c6.4,4.2,56.8,65.1,65.5,74.3
	c4.3,4.4,14.3,44.1,17.7,55.7s11.6,24.6,19,32.2c11.2,11.3,41.5,14.7,68,0.3c31.3-17,47.3-72.7,21.3-128.9h44.3
	c25.5,0.3,41.2-6.9,53.8-19.7c21.3-21.7,16.3-75.3,1.8-90.1C458.9,220.8,463.9,194.8,447.2,172.1z M125.1,124c0,14.9-12.1,27-27,27
	s-27-12.1-27-27s12.1-27,27-27S125.1,109.2,125.1,124z M399.4,304.2h-94.5c0,10.2,4.3,24.1,12.9,41.9s24,54.2,4.3,80.2
	c-6,8-17.2,12.3-34.4,12.3c-4.7-4.6-18.6-62.7-34.4-84.1c-11.2-15.1-75.7-84.4-78.5-84.4l-0.4-167.8c2.3,0,94.5-35.2,139.1-33.6
	c0,0,99.2,4.2,82.7,58.6c13,3.7,21,39,12.6,51.2c17.7,17.1,12.7,51.1,4.8,58.3C433.2,250.8,430.9,304.1,399.4,304.2z"/>
</svg>
