<?xml version="1.0" encoding="utf-8"?>
<!-- Generator: Adobe Illustrator 21.0.0, SVG Export Plug-In . SVG Version: 6.00 Build 0)  -->
<svg version="1.1" id="Capa_1" xmlns="http://www.w3.org/2000/svg" xmlns:xlink="http://www.w3.org/1999/xlink" x="0px" y="0px"
	 viewBox="0 0 512 512" style="enable-background:new 0 0 512 512;" xml:space="preserve">
<path d="M474.1,280.4c10.5-12,19.8-57.6-0.6-81.1C462.7,188.4,449.8,183,435,183h-79.1c0.8-2.7,15.5-28.4,21.5-51.4
	c3.3-13.3,3.1-46-2.3-60c-1.4-3.8-7.3-17.4-18.3-24.4c-4.5-3-21.3-12.6-40.7-10.4c-4.9,0.6-9.2,1.8-12.8,5.4
	c-3.8,3.8-10.2,13.6-15.3,29.1c-1.4,6.4-4,18-5.3,25.4c-1.7,8-4.7,17.4-7.1,23.1c-2.5,5.7-5.4,10.3-8.9,13.7
	c-6.3,6.3-88.2,88-91.6,91.5c-0.1,33.6,0.6,192.6,0.3,208.1c3.6,3.5,84.1,26.8,92.4,29.4c8.3,2.6,60.3,12.8,112.6,12.7
	c25.3,0,44.1-7.8,56.2-22.3c11-13.1,15.7-30.4,14-51.7c10.7-10.7,20.4-33.7,15.4-60.2C477.1,326.8,482.1,302.5,474.1,280.4z"/>
<path d="M38.4,225.4c-6.6,0-12,5.4-12,12v183.8c0,6.6,5.4,12,12,12h105V225.4H38.4z M78.4,411.3c-15.2,0-27.6-12.4-27.6-27.6
	s12.3-27.6,27.6-27.6s27.6,12.4,27.6,27.6S93.6,411.3,78.4,411.3z"/>
</svg>
