<?xml version="1.0" encoding="utf-8"?>
<!-- Generator: Adobe Illustrator 21.0.0, SVG Export Plug-In . SVG Version: 6.00 Build 0)  -->
<svg version="1.1" id="Capa_1" xmlns="http://www.w3.org/2000/svg" xmlns:xlink="http://www.w3.org/1999/xlink" x="0px" y="0px"
	 viewBox="0 0 512 512" style="enable-background:new 0 0 512 512;" xml:space="preserve">
<g>
	<polygon points="250.7,174.7 210.6,174.7 210.6,323.4 340.6,323.4 340.6,287.1 250.7,287.1 	"/>
	<path d="M446,189.8l42.5-13.4c-15.4-35.9-47.3-74.7-78.9-96.9l-21.5,35.4c7.4,5.4,14.4,11.4,20.8,17.8l-21.9,17.8
		c-32.6-36.5-77.9-61.5-128.7-68V53.1h38.6V14.5H166.6v38.6h38.5v29.6C103,96,23.5,183.7,23.5,289.2c0,114.5,93.7,208.3,208.3,208.3
		s208.3-93.7,208.3-208.3c0-39.1-11-75.9-30.1-107.3l22.7-18.5C437.9,171.8,442.3,180.7,446,189.8z M231.7,456.1
		C140,456.1,64.8,381,64.8,289.2s75.3-166.8,166.9-166.8s166.9,75.1,166.9,166.9S323.5,456.1,231.7,456.1z"/>
</g>
</svg>
