<?xml version="1.0" encoding="utf-8"?>
<!-- Generator: Adobe Illustrator 21.0.0, SVG Export Plug-In . SVG Version: 6.00 Build 0)  -->
<svg version="1.1" id="Capa_1" xmlns="http://www.w3.org/2000/svg" xmlns:xlink="http://www.w3.org/1999/xlink" x="0px" y="0px"
	 viewBox="0 0 512 512" style="enable-background:new 0 0 512 512;" xml:space="preserve">
<path d="M256,78.6C120.3,78.6,10.4,155.7,10.4,251s117,182.4,252.6,182.4S501.6,346.2,501.6,251S391.7,78.6,256,78.6z M257,195.8
	c43.5,0,78.6,24.7,78.6,55.2s-35.2,55.2-78.6,55.2s-78.6-24.7-78.6-55.2S213.6,195.8,257,195.8z M282.5,392.8
	C189.2,398.9,70.9,345.4,52,241.1c-2-11.9-0.5-19.4-0.3-24c21.8,78.4,120.2,140.7,235.4,129.7c96.9-9.2,171.8-67.9,174.7-151.9
	c1.8,6.7,3.1,13.6,3.8,20.6C474.3,310.2,394.4,385.4,282.5,392.8z"/>
</svg>
