<?xml version="1.0" encoding="utf-8"?>
<!-- Generator: Adobe Illustrator 21.0.0, SVG Export Plug-In . SVG Version: 6.00 Build 0)  -->
<svg version="1.1" id="Capa_1" xmlns="http://www.w3.org/2000/svg" xmlns:xlink="http://www.w3.org/1999/xlink" x="0px" y="0px"
	 viewBox="0 0 512 512" style="enable-background:new 0 0 512 512;" xml:space="preserve">
<g>
	<path d="M102.4,476.8c0,5.3,5,9.6,11.3,9.6h286c6.2,0,11.3-4.3,11.3-9.6V165.6H102.4V476.8L102.4,476.8z M320.1,218.6h42.3V428
		h-42.3V218.6z M235.6,218.6h42.3V428h-42.3L235.6,218.6L235.6,218.6z M151.1,218.6h42.3V428h-42.3V218.6z"/>
	<path d="M350.5,25.6H160.8v59.8H78.3l-8.5,47.5l372.5-1.1l-6.5-46.4h-85L350.5,25.6z M308.5,86.4H203.1v-7.9V66.7V50.9h105.4v15.9
		v11.7V86.4z"/>
</g>
</svg>
