<?xml version="1.0" encoding="utf-8"?>
<!-- Generator: Adobe Illustrator 21.0.0, SVG Export Plug-In . SVG Version: 6.00 Build 0)  -->
<svg version="1.1" id="Capa_1" xmlns="http://www.w3.org/2000/svg" xmlns:xlink="http://www.w3.org/1999/xlink" x="0px" y="0px"
	 viewBox="0 0 512 512" style="enable-background:new 0 0 512 512;" xml:space="preserve">
<path d="M501.4,103.6c-18.1,8-37.4,13.4-57.8,15.9c20.8-12.5,36.8-32.2,44.3-55.7c-19.4,11.5-41,20-64,24.4
	c-18.4-19.7-44.6-31.9-73.5-31.9c-55.6,0-100.7,45.1-100.7,100.8c0,7.9,0.8,15.6,2.6,23c-83.7-4.2-158-44.3-207.6-105.4
	c-8.6,14.9-13.6,32.2-13.6,50.6c0,34.9,17.8,65.8,44.8,83.9c-16.5-0.4-32.1-5-45.7-12.6c0,0.4,0,0.8,0,1.2
	c0,48.9,34.7,89.5,80.8,98.8c-8.4,2.3-17.4,3.5-26.5,3.5c-6.4,0-12.8-0.6-18.9-1.9c12.8,40,50,69.2,94.1,70
	c-34.4,27-77.9,43.2-125.1,43.2c-8.1,0-16.1-0.5-24-1.5c44.5,28.9,97.4,45.6,154.1,45.6c185.4,0,286.7-153.6,286.7-286.8
	c0-4.4-0.1-8.7-0.3-13C470.8,141.6,487.9,123.8,501.4,103.6z"/>
</svg>
