<?xml version="1.0" encoding="utf-8"?>
<!-- Generator: Adobe Illustrator 21.0.0, SVG Export Plug-In . SVG Version: 6.00 Build 0)  -->
<svg version="1.1" id="Capa_1" xmlns="http://www.w3.org/2000/svg" xmlns:xlink="http://www.w3.org/1999/xlink" x="0px" y="0px"
	 viewBox="0 0 512 512" style="enable-background:new 0 0 512 512;" xml:space="preserve">
<g>
	<path d="M271.1,101.3c73.1,0,134.8,51.1,151.1,119.4h52.2C457.2,124.2,372.3,50.2,271,50.2c-69.2,0-130.7,34.4-168.2,87L35.8,94
		v194.8l193.5-70l-83.4-53.9C174.2,126.4,219.9,101.3,271.1,101.3z"/>
	<path d="M424.6,279.8c-4.4,29.5-17.2,56.4-35.9,78.1l39.7,32.2c25.9-30.5,43.1-68.6,47.8-110.3H424.6z"/>
	<path d="M295.9,410.1v51.7c34.2-4.2,65.8-16.7,92.8-35.6l-41.9-34C331.2,401,314.1,407.1,295.9,410.1z"/>
</g>
</svg>
