<?xml version="1.0" encoding="utf-8"?>
<!-- Generator: Adobe Illustrator 21.0.0, SVG Export Plug-In . SVG Version: 6.00 Build 0)  -->
<svg version="1.1" id="Capa_1" xmlns="http://www.w3.org/2000/svg" xmlns:xlink="http://www.w3.org/1999/xlink" x="0px" y="0px"
	 viewBox="0 0 512 512" style="enable-background:new 0 0 512 512;" xml:space="preserve">
<circle cx="256" cy="134" r="95.5"/>
<path d="M456.9,393.3c0.1-10.2-3.2-49.5-4.9-60.7c-15.5-103.6-83.1-107.3-93.8-102.9c-2,0.8-4.3,2.4-7.1,4.6l-52.6,174.8
	l-27.4-126.2l11-15.7c-7.9,1.3-16.6,2.1-26.1,2.1c-9.5,0-18.2-0.7-26.1-2l10.9,15.6L213.4,409l-51.7-174.2c-3.2-2.4-5.8-4.3-7.9-5.1
	C143,225.3,71,239,60,332.6c-2.5,21.8-5,50.6-5,60.7c0,22.8-3.3,73.9,76.2,73.9h249.5C463.7,467.2,456.9,416.1,456.9,393.3z"/>
</svg>
