<?xml version="1.0" encoding="utf-8"?>
<!-- Generator: Adobe Illustrator 21.0.0, SVG Export Plug-In . SVG Version: 6.00 Build 0)  -->
<svg version="1.1" id="Capa_1" xmlns="http://www.w3.org/2000/svg" xmlns:xlink="http://www.w3.org/1999/xlink" x="0px" y="0px"
	 viewBox="0 0 512 512" style="enable-background:new 0 0 512 512;" xml:space="preserve">
<g>
	<path d="M158.7,250.5c-20.9-21-23.9-49.5-18.5-78.1c-55.1,18.4-94.5-15-95.5-15c-20.1,0-30.1,28.6-30.1,85.7
		c0,12.6,1.5,38.6,47.1,38.6h32.5C111.1,261.7,132.5,251.3,158.7,250.5z"/>
	<circle cx="108" cy="95.3" r="55.2"/>
	<circle cx="255.8" cy="190.5" r="87"/>
	<path d="M418.5,360.2c-12.9-86-69-89.1-77.9-85.4c-9.8,4-30.5,32.6-84.8,32.9c-53,0.2-75.1-29-84.8-32.9
		c-8.9-3.6-68.7,7.8-77.9,85.4c-2.1,18.1-4.1,42-4.1,50.4c0,18.9-2.7,61.3,63.2,61.3h207.1c68.9,0,63.2-42.4,63.2-61.3
		C422.6,402.1,419.9,369.4,418.5,360.2z"/>
	<path d="M467.3,157.4c-1,0-40.4,33.4-95.5,15c5.4,28.6,2.4,57.1-18.5,78.1c26.2,0.8,47.6,11.2,64.5,31.2h32.5
		c45.6,0,47.1-26,47.1-38.6C497.4,186,487.4,157.4,467.3,157.4z"/>
	<circle cx="404" cy="95.3" r="55.2"/>
</g>
</svg>
