<?xml version="1.0" encoding="utf-8"?>
<!-- Generator: Adobe Illustrator 21.0.0, SVG Export Plug-In . SVG Version: 6.00 Build 0)  -->
<svg version="1.1" id="Capa_1" xmlns="http://www.w3.org/2000/svg" xmlns:xlink="http://www.w3.org/1999/xlink" x="0px" y="0px"
	 viewBox="0 0 512 512" style="enable-background:new 0 0 512 512;" xml:space="preserve">
<path d="M450.4,206.3c-12.2,0-23.4,4.6-31.9,12.2l-114.3-68.6c1.9-6.3,2.9-12.9,2.9-19.7c0-37.8-30.7-68.4-68.4-68.4
	s-68.4,30.7-68.4,68.4c0,19.4,8.1,37,21,49.4L81.9,334.9c-4.1-1-8.3-1.4-12.6-1.4c-30.5,0-55.2,24.8-55.2,55.2
	c0,30.5,24.7,55.2,55.2,55.2s55.2-24.8,55.2-55.2c0-16.2-6.9-30.7-18-40.8l108.2-153.6c7.5,2.8,15.5,4.3,23.9,4.3L262.6,352
	c-18.3,7.8-31.1,26-31.1,47.1c0,28.3,22.9,51.1,51.2,51.1c28.3,0,51.1-22.9,51.1-51.1c0-26-19.4-47.4-44.6-50.7L265,193.3
	c11.9-4.9,22-13.1,29.4-23.4l111.5,67c-2,5.3-3.1,11-3.1,16.9c0,26.3,21.3,47.6,47.6,47.6c26.3,0,47.5-21.2,47.5-47.5
	S476.7,206.3,450.4,206.3z"/>
</svg>
