<?xml version="1.0" encoding="utf-8"?>
<!-- Generator: Adobe Illustrator 21.0.0, SVG Export Plug-In . SVG Version: 6.00 Build 0)  -->
<svg version="1.1" id="Capa_1" xmlns="http://www.w3.org/2000/svg" xmlns:xlink="http://www.w3.org/1999/xlink" x="0px" y="0px"
	 viewBox="0 0 512 512" style="enable-background:new 0 0 512 512;" xml:space="preserve">
<path class="st0" d="M432.7,210.8c-11.1,0-21.3,4.2-29,11.1l-103.9-62.4c1.7-5.7,2.6-11.7,2.6-17.9c0-34.4-27.9-62.2-62.2-62.2
	S178,107.3,178,141.6c0,17.6,7.4,33.6,19.1,44.9L97.7,327.7c-3.7-0.9-7.5-1.3-11.5-1.3c-27.7,0-50.2,22.5-50.2,50.2
	s22.5,50.2,50.2,50.2s50.2-22.5,50.2-50.2c0-14.7-6.3-27.9-16.4-37.1l98.4-139.6c6.8,2.5,14.1,3.9,21.7,3.9L262,343.3
	c-16.6,7.1-28.3,23.6-28.3,42.8c0,25.7,20.8,46.5,46.5,46.5s46.5-20.8,46.5-46.5c0-23.6-17.6-43.1-40.5-46.1l-22-141
	c10.8-4.5,20-11.9,26.7-21.3l101.4,60.9c-1.8,4.8-2.8,10-2.8,15.4c0,23.9,19.4,43.3,43.3,43.3S476,278,476,254.1
	S456.6,210.8,432.7,210.8z"/>
</svg>
